<svg version="1.1" viewBox="300.0 150.0 400.0 400.0" fill="none" stroke="none" stroke-linecap="square" stroke-miterlimit="10" xmlns:xlink="http://www.w3.org/1999/xlink" xmlns="http://www.w3.org/2000/svg"><clipPath id="p.0"><path d="m0 0l960.0 0l0 720.0l-960.0 0l0 -720.0z" clip-rule="nonzero"/></clipPath><g clip-path="url(#p.0)"><path fill="#000000" fill-opacity="0.0" d="m0 0l960.0 0l0 720.0l-960.0 0z" fill-rule="evenodd"/><path fill="#cfe2f3" d="m336.8819 204.10498l0 0c0 -24.439682 20.700653 -44.25197 46.236206 -44.25197l0 0c12.262604 0 24.02298 4.6622467 32.69394 12.961105c8.67099 8.298859 13.542297 19.55452 13.542297 31.290863l0 0c0 24.439697 -20.700684 44.25197 -46.236237 44.25197l0 0c-25.535553 0 -46.236206 -19.812271 -46.236206 -44.25197z" fill-rule="evenodd"/><path stroke="#000000" stroke-width="1.0" stroke-linejoin="round" stroke-linecap="butt" d="m336.8819 204.10498l0 0c0 -24.439682 20.700653 -44.25197 46.236206 -44.25197l0 0c12.262604 0 24.02298 4.6622467 32.69394 12.961105c8.67099 8.298859 13.542297 19.55452 13.542297 31.290863l0 0c0 24.439697 -20.700684 44.25197 -46.236237 44.25197l0 0c-25.535553 0 -46.236206 -19.812271 -46.236206 -44.25197z" fill-rule="evenodd"/><path fill="#000000" d="m378.7115 204.43123q0 -2.359375 0.484375 -3.796875q0.484375 -1.453125 1.4375 -2.234375q0.96875 -0.78125 2.4219055 -0.78125q1.078125 0 1.890625 0.4375q0.8125 0.421875 1.328125 1.25q0.53125 0.8125 0.828125 1.984375q0.3125 1.15625 0.3125 3.140625q0 2.359375 -0.484375 3.8125q-0.484375 1.4375 -1.453125 2.234375q-0.953125 0.78125 -2.421875 0.78125q-1.9219055 0 -3.0312805 -1.390625q-1.3125 -1.671875 -1.3125 -5.4375zm1.671875 0q0 3.296875 0.765625 4.390625q0.78125 1.078125 1.9062805 1.078125q1.140625 0 1.90625 -1.09375q0.765625 -1.09375 0.765625 -4.375q0 -3.296875 -0.765625 -4.375q-0.765625 -1.078125 -1.921875 -1.078125q-1.1250305 0 -1.7969055 0.953125q-0.859375 1.21875 -0.859375 4.5z" fill-rule="nonzero"/><path fill="#cfe2f3" d="m536.51447 286.1601l0 0c0 -24.439667 20.700623 -44.251953 46.236206 -44.251953l0 0c12.262573 0 24.02295 4.6622467 32.69391 12.96109c8.6710205 8.298859 13.542297 19.554535 13.542297 31.290863l0 0c0 24.439697 -20.700684 44.251984 -46.236206 44.251984l0 0c-25.535583 0 -46.236206 -19.812286 -46.236206 -44.251984z" fill-rule="evenodd"/><path stroke="#000000" stroke-width="1.0" stroke-linejoin="round" stroke-linecap="butt" d="m536.51447 286.1601l0 0c0 -24.439667 20.700623 -44.251953 46.236206 -44.251953l0 0c12.262573 0 24.02295 4.6622467 32.69391 12.96109c8.6710205 8.298859 13.542297 19.554535 13.542297 31.290863l0 0c0 24.439697 -20.700684 44.251984 -46.236206 44.251984l0 0c-25.535583 0 -46.236206 -19.812286 -46.236206 -44.251984z" fill-rule="evenodd"/><path fill="#000000" d="m584.5159 293.0801l-1.640625 0l0 -10.453125q-0.59375 0.5625 -1.5625 1.140625q-0.953125 0.5625 -1.71875 0.84375l0 -1.59375q1.375 -0.640625 2.40625 -1.5625q1.03125 -0.921875 1.453125 -1.78125l1.0625 0l0 13.40625z" fill-rule="nonzero"/><path fill="#cfe2f3" d="m308.11023 404.25198l0 0c0 -24.439697 20.700653 -44.251984 46.236237 -44.251984l0 0c12.262604 0 24.02295 4.662262 32.69394 12.96109c8.670959 8.298859 13.542267 19.554535 13.542267 31.290894l0 0c0 24.439667 -20.700653 44.251953 -46.236206 44.251953l0 0c-25.535583 0 -46.236237 -19.812286 -46.236237 -44.251953z" fill-rule="evenodd"/><path stroke="#000000" stroke-width="1.0" stroke-linejoin="round" stroke-linecap="butt" d="m308.11023 404.25198l0 0c0 -24.439697 20.700653 -44.251984 46.236237 -44.251984l0 0c12.262604 0 24.02295 4.662262 32.69394 12.96109c8.670959 8.298859 13.542267 19.554535 13.542267 31.290894l0 0c0 24.439667 -20.700653 44.251953 -46.236206 44.251953l0 0c-25.535583 0 -46.236237 -19.812286 -46.236237 -44.251953z" fill-rule="evenodd"/><path fill="#000000" d="m358.54922 409.59384l0 1.578125l-8.828125 0q-0.015625 -0.59375 0.1875 -1.140625q0.34375 -0.90625 1.078125 -1.78125q0.75 -0.875 2.15625 -2.015625q2.171875 -1.78125 2.9375 -2.828125q0.765625 -1.046875 0.765625 -1.96875q0 -0.984375 -0.703125 -1.640625q-0.6875 -0.671875 -1.8125 -0.671875q-1.1875 0 -1.90625 0.71875q-0.703125 0.703125 -0.703125 1.953125l-1.6875 -0.171875q0.171875 -1.890625 1.296875 -2.875q1.140625 -0.984375 3.03125 -0.984375q1.921875 0 3.046875 1.0625q1.125 1.0625 1.125 2.640625q0 0.796875 -0.328125 1.578125q-0.328125 0.78125 -1.09375 1.640625q-0.75 0.84375 -2.53125 2.34375q-1.46875 1.234375 -1.890625 1.6875q-0.421875 0.4375 -0.6875 0.875l6.546875 0z" fill-rule="nonzero"/><path fill="#cfe2f3" d="m519.6352 463.48032l0 0c0 -24.439697 20.700623 -44.251984 46.236206 -44.251984l0 0c12.262573 0 24.02295 4.662262 32.69391 12.961121c8.6710205 8.298859 13.542297 19.554504 13.542297 31.290863l0 0c0 24.439697 -20.700684 44.251953 -46.236206 44.251953l0 0c-25.535583 0 -46.236206 -19.812256 -46.236206 -44.251953z" fill-rule="evenodd"/><path stroke="#000000" stroke-width="1.0" stroke-linejoin="round" stroke-linecap="butt" d="m519.6352 463.48032l0 0c0 -24.439697 20.700623 -44.251984 46.236206 -44.251984l0 0c12.262573 0 24.02295 4.662262 32.69391 12.961121c8.6710205 8.298859 13.542297 19.554504 13.542297 31.290863l0 0c0 24.439697 -20.700684 44.251953 -46.236206 44.251953l0 0c-25.535583 0 -46.236206 -19.812256 -46.236206 -44.251953z" fill-rule="evenodd"/><path fill="#000000" d="m561.4648 466.86905l1.640625 -0.21875q0.28125 1.40625 0.953125 2.015625q0.6875 0.609375 1.65625 0.609375q1.15625 0 1.953125 -0.796875q0.796875 -0.796875 0.796875 -1.984375q0 -1.125 -0.734375 -1.859375q-0.734375 -0.734375 -1.875 -0.734375q-0.46875 0 -1.15625 0.171875l0.1875 -1.4375q0.15625 0.015625 0.265625 0.015625q1.046875 0 1.875 -0.546875q0.84375 -0.546875 0.84375 -1.671875q0 -0.90625 -0.609375 -1.5q-0.609375 -0.59375 -1.578125 -0.59375q-0.953125 0 -1.59375 0.609375q-0.640625 0.59375 -0.8125 1.796875l-1.640625 -0.296875q0.296875 -1.640625 1.359375 -2.546875q1.0625 -0.90625 2.65625 -0.90625q1.09375 0 2.0 0.46875q0.921875 0.46875 1.40625 1.28125q0.5 0.8125 0.5 1.71875q0 0.859375 -0.46875 1.578125q-0.46875 0.703125 -1.375 1.125q1.1875 0.28125 1.84375 1.140625q0.65625 0.859375 0.65625 2.15625q0 1.734375 -1.28125 2.953125q-1.265625 1.21875 -3.21875 1.21875q-1.765625 0 -2.921875 -1.046875q-1.15625 -1.046875 -1.328125 -2.71875z" fill-rule="nonzero"/><path fill="#000000" fill-opacity="0.0" d="m415.81204 235.39586l120.6929 50.771652" fill-rule="evenodd"/><path stroke="#000000" stroke-width="1.0" stroke-linejoin="round" stroke-linecap="butt" d="m415.81204 235.39586l115.162384 48.445114" fill-rule="evenodd"/><path fill="#000000" stroke="#000000" stroke-width="1.0" stroke-linecap="butt" d="m530.3339 285.36346l4.8234863 0.23718262l-3.5425415 -3.2821655z" fill-rule="evenodd"/><path fill="#000000" fill-opacity="0.0" d="m383.1181 248.35695l-28.75589 111.65355" fill-rule="evenodd"/><path stroke="#000000" stroke-width="1.0" stroke-linejoin="round" stroke-linecap="butt" d="m383.1181 248.35695l-27.25946 105.843155" fill-rule="evenodd"/><path fill="#000000" stroke="#000000" stroke-width="1.0" stroke-linecap="butt" d="m354.25912 353.78815l0.46768188 4.8066406l2.7313843 -3.982727z" fill-rule="evenodd"/><path fill="#000000" fill-opacity="0.0" d="m550.0567 317.45096l-149.48032 86.80316" fill-rule="evenodd"/><path stroke="#000000" stroke-width="1.0" stroke-linejoin="round" stroke-linecap="butt" d="m550.0567 317.45096l-144.29169 83.7901" fill-rule="evenodd"/><path fill="#000000" stroke="#000000" stroke-width="1.0" stroke-linecap="butt" d="m404.93558 399.8127l-3.0949707 3.7072754l4.753845 -0.8505554z" fill-rule="evenodd"/><path fill="#000000" fill-opacity="0.0" d="m387.0404 435.54285l132.59845 27.937012" fill-rule="evenodd"/><path stroke="#000000" stroke-width="1.0" stroke-linejoin="round" stroke-linecap="butt" d="m387.0404 435.54282l126.727295 26.700043" fill-rule="evenodd"/><path fill="#000000" stroke="#000000" stroke-width="1.0" stroke-linecap="butt" d="m513.4272 463.8591l4.781128 -0.68066406l-4.1000977 -2.5518494z" fill-rule="evenodd"/></g></svg>