<svg version="1.1" viewBox="0.0 0.0 960.0 720.0" fill="none" stroke="none" stroke-linecap="square" stroke-miterlimit="10" xmlns:xlink="http://www.w3.org/1999/xlink" xmlns="http://www.w3.org/2000/svg"><clipPath id="p.0"><path d="m0 0l960.0 0l0 720.0l-960.0 0l0 -720.0z" clip-rule="nonzero"/></clipPath><g clip-path="url(#p.0)"><path fill="#000000" fill-opacity="0.0" d="m0 0l960.0 0l0 720.0l-960.0 0z" fill-rule="evenodd"/><path fill="#cfe2f3" d="m102.7874 93.97769l0 0c0 -24.43969 20.70066 -44.25197 46.23622 -44.25197l0 0c12.262604 0 24.02298 4.6622467 32.69394 12.961102c8.670975 8.298855 13.542282 19.554516 13.542282 31.290867l0 0c0 24.43969 -20.700653 44.25197 -46.23622 44.25197l0 0c-25.53556 0 -46.23622 -19.812279 -46.23622 -44.25197z" fill-rule="evenodd"/><path stroke="#000000" stroke-width="3.0" stroke-linejoin="round" stroke-linecap="butt" d="m102.7874 93.97769l0 0c0 -24.43969 20.70066 -44.25197 46.23622 -44.25197l0 0c12.262604 0 24.02298 4.6622467 32.69394 12.961102c8.670975 8.298855 13.542282 19.554516 13.542282 31.290867l0 0c0 24.43969 -20.700653 44.25197 -46.23622 44.25197l0 0c-25.53556 0 -46.23622 -19.812279 -46.23622 -44.25197z" fill-rule="evenodd"/><path fill="#000000" d="m144.61702 94.30394q0 -2.359375 0.484375 -3.796875q0.484375 -1.453125 1.4375 -2.234375q0.96875 -0.78125 2.421875 -0.78125q1.078125 0 1.890625 0.4375q0.8125 0.421875 1.328125 1.25q0.53125 0.8125 0.828125 1.984375q0.3125 1.15625 0.3125 3.140625q0 2.359375 -0.484375 3.8125q-0.484375 1.4375 -1.453125 2.234375q-0.953125 0.78125 -2.421875 0.78125q-1.921875 0 -3.03125 -1.390625q-1.3125 -1.671875 -1.3125 -5.4375zm1.671875 0q0 3.296875 0.765625 4.390625q0.78125 1.078125 1.90625 1.078125q1.140625 0 1.90625 -1.09375q0.765625 -1.09375 0.765625 -4.375q0 -3.296875 -0.765625 -4.375q-0.765625 -1.078125 -1.921875 -1.078125q-1.125 0 -1.796875 0.953125q-0.859375 1.21875 -0.859375 4.5z" fill-rule="nonzero"/><path fill="#cfe2f3" d="m324.15222 87.64698l0 0c0 -24.439686 20.700684 -44.25197 46.236237 -44.25197l0 0c12.262604 0 24.02298 4.6622505 32.69394 12.961102c8.670959 8.298855 13.542267 19.554516 13.542267 31.290867l0 0c0 24.43969 -20.700653 44.251976 -46.236206 44.251976l0 0c-25.535553 0 -46.236237 -19.812286 -46.236237 -44.251976z" fill-rule="evenodd"/><path stroke="#000000" stroke-width="3.0" stroke-linejoin="round" stroke-linecap="butt" d="m324.15222 87.64698l0 0c0 -24.439686 20.700684 -44.25197 46.236237 -44.25197l0 0c12.262604 0 24.02298 4.6622505 32.69394 12.961102c8.670959 8.298855 13.542267 19.554516 13.542267 31.290867l0 0c0 24.43969 -20.700653 44.251976 -46.236206 44.251976l0 0c-25.535553 0 -46.236237 -19.812286 -46.236237 -44.251976z" fill-rule="evenodd"/><path fill="#000000" d="m372.15372 94.56698l-1.640625 0l0 -10.453125q-0.59375 0.5625 -1.5625 1.140625q-0.953125 0.5625 -1.71875 0.84375l0 -1.59375q1.375 -0.640625 2.40625 -1.5625q1.03125 -0.921875 1.453125 -1.78125l1.0625 0l0 13.40625z" fill-rule="nonzero"/><path fill="#cfe2f3" d="m523.021 93.97769l0 0c0 -24.43969 20.700684 -44.25197 46.236206 -44.25197l0 0c12.262634 0 24.02301 4.6622467 32.69397 12.961102c8.670959 8.298855 13.542236 19.554516 13.542236 31.290867l0 0c0 24.43969 -20.700623 44.25197 -46.236206 44.25197l0 0c-25.535522 0 -46.236206 -19.812279 -46.236206 -44.25197z" fill-rule="evenodd"/><path stroke="#000000" stroke-width="3.0" stroke-linejoin="round" stroke-linecap="butt" d="m523.021 93.97769l0 0c0 -24.43969 20.700684 -44.25197 46.236206 -44.25197l0 0c12.262634 0 24.02301 4.6622467 32.69397 12.961102c8.670959 8.298855 13.542236 19.554516 13.542236 31.290867l0 0c0 24.43969 -20.700623 44.25197 -46.236206 44.25197l0 0c-25.535522 0 -46.236206 -19.812279 -46.236206 -44.25197z" fill-rule="evenodd"/><path fill="#000000" d="m573.45996 99.319565l0 1.578125l-8.828125 0q-0.015625 -0.59375 0.1875 -1.140625q0.34375 -0.90625 1.078125 -1.78125q0.75 -0.875 2.15625 -2.015625q2.171875 -1.78125 2.9375 -2.828125q0.765625 -1.046875 0.765625 -1.96875q0 -0.984375 -0.703125 -1.640625q-0.6875 -0.671875 -1.8125 -0.671875q-1.1875 0 -1.90625 0.71875q-0.703125 0.703125 -0.703125 1.953125l-1.6875 -0.171875q0.171875 -1.890625 1.296875 -2.875q1.140625 -0.984375 3.03125 -0.984375q1.921875 0 3.046875 1.0625q1.125 1.0625 1.125 2.640625q0 0.796875 -0.328125 1.578125q-0.328125 0.78125 -1.09375 1.640625q-0.75 0.84375 -2.53125 2.34375q-1.46875 1.234375 -1.890625 1.6875q-0.421875 0.4375 -0.6875 0.875l6.546875 0z" fill-rule="nonzero"/><path fill="#cfe2f3" d="m710.0079 165.46588l0 0c0 -24.439682 20.700684 -44.25197 46.236206 -44.25197l0 0c12.262634 0 24.02301 4.6622467 32.69397 12.961105c8.670959 8.298843 13.542236 19.554504 13.542236 31.290863l0 0c0 24.439682 -20.700623 44.25197 -46.236206 44.25197l0 0c-25.535522 0 -46.236206 -19.812286 -46.236206 -44.25197z" fill-rule="evenodd"/><path stroke="#000000" stroke-width="3.0" stroke-linejoin="round" stroke-linecap="butt" d="m710.0079 165.46588l0 0c0 -24.439682 20.700684 -44.25197 46.236206 -44.25197l0 0c12.262634 0 24.02301 4.6622467 32.69397 12.961105c8.670959 8.298843 13.542236 19.554504 13.542236 31.290863l0 0c0 24.439682 -20.700623 44.25197 -46.236206 44.25197l0 0c-25.535522 0 -46.236206 -19.812286 -46.236206 -44.25197z" fill-rule="evenodd"/><path fill="#000000" d="m751.83746 168.85463l1.640625 -0.21875q0.28125 1.40625 0.953125 2.015625q0.6875 0.609375 1.65625 0.609375q1.15625 0 1.953125 -0.796875q0.796875 -0.796875 0.796875 -1.984375q0 -1.125 -0.734375 -1.859375q-0.734375 -0.734375 -1.875 -0.734375q-0.46875 0 -1.15625 0.171875l0.1875 -1.4375q0.15625 0.015625 0.265625 0.015625q1.046875 0 1.875 -0.546875q0.84375 -0.546875 0.84375 -1.671875q0 -0.90625 -0.609375 -1.5q-0.609375 -0.59375 -1.578125 -0.59375q-0.953125 0 -1.59375 0.609375q-0.640625 0.59375 -0.8125 1.796875l-1.640625 -0.296875q0.296875 -1.640625 1.359375 -2.546875q1.0625 -0.90625 2.65625 -0.90625q1.09375 0 2.0 0.46875q0.921875 0.46875 1.40625 1.28125q0.5 0.8125 0.5 1.71875q0 0.859375 -0.46875 1.578125q-0.46875 0.703125 -1.375 1.125q1.1875 0.28125 1.84375 1.140625q0.65625 0.859375 0.65625 2.15625q0 1.734375 -1.28125 2.953125q-1.265625 1.21875 -3.21875 1.21875q-1.765625 0 -2.921875 -1.046875q-1.15625 -1.046875 -1.328125 -2.71875z" fill-rule="nonzero"/><path fill="#cfe2f3" d="m835.1732 375.13516l0 0c0 -24.439667 20.700684 -44.251953 46.236206 -44.251953l0 0c12.262634 0 24.02301 4.6622314 32.69397 12.96109c8.670959 8.298859 13.542297 19.554504 13.542297 31.290863l0 0c0 24.439697 -20.700684 44.251984 -46.236267 44.251984l0 0c-25.535522 0 -46.236206 -19.812286 -46.236206 -44.251984z" fill-rule="evenodd"/><path stroke="#000000" stroke-width="3.0" stroke-linejoin="round" stroke-linecap="butt" d="m835.1732 375.13516l0 0c0 -24.439667 20.700684 -44.251953 46.236206 -44.251953l0 0c12.262634 0 24.02301 4.6622314 32.69397 12.96109c8.670959 8.298859 13.542297 19.554504 13.542297 31.290863l0 0c0 24.439697 -20.700684 44.251984 -46.236267 44.251984l0 0c-25.535522 0 -46.236206 -19.812286 -46.236206 -44.251984z" fill-rule="evenodd"/><path fill="#000000" d="m882.25287 382.05518l0 -3.203125l-5.796875 0l0 -1.5l6.09375 -8.65625l1.34375 0l0 8.65625l1.796875 0l0 1.5l-1.796875 0l0 3.203125l-1.640625 0zm0 -4.703125l0 -6.015625l-4.1875 6.015625l4.1875 0z" fill-rule="nonzero"/><path fill="#cfe2f3" d="m639.10236 499.64697l0 0c0 -24.439667 20.700684 -44.251953 46.236206 -44.251953l0 0c12.262634 0 24.02301 4.6622314 32.69397 12.96109c8.670959 8.298859 13.542297 19.554535 13.542297 31.290863l0 0c0 24.439697 -20.700684 44.251953 -46.236267 44.251953l0 0c-25.535522 0 -46.236206 -19.812256 -46.236206 -44.251953z" fill-rule="evenodd"/><path stroke="#000000" stroke-width="3.0" stroke-linejoin="round" stroke-linecap="butt" d="m639.10236 499.64697l0 0c0 -24.439667 20.700684 -44.251953 46.236206 -44.251953l0 0c12.262634 0 24.02301 4.6622314 32.69397 12.96109c8.670959 8.298859 13.542297 19.554535 13.542297 31.290863l0 0c0 24.439697 -20.700684 44.251953 -46.236267 44.251953l0 0c-25.535522 0 -46.236206 -19.812256 -46.236206 -44.251953z" fill-rule="evenodd"/><path fill="#000000" d="m680.93195 503.067l1.71875 -0.140625q0.1875 1.25 0.875 1.890625q0.703125 0.625 1.6875 0.625q1.1875 0 2.0 -0.890625q0.828125 -0.890625 0.828125 -2.359375q0 -1.40625 -0.796875 -2.21875q-0.78125 -0.8125 -2.0625 -0.8125q-0.78125 0 -1.421875 0.359375q-0.640625 0.359375 -1.0 0.9375l-1.546875 -0.203125l1.296875 -6.859375l6.640625 0l0 1.5625l-5.328125 0l-0.71875 3.59375q1.203125 -0.84375 2.515625 -0.84375q1.75 0 2.953125 1.21875q1.203125 1.203125 1.203125 3.109375q0 1.8125 -1.046875 3.140625q-1.296875 1.625 -3.515625 1.625q-1.8125 0 -2.96875 -1.015625q-1.15625 -1.03125 -1.3125 -2.71875z" fill-rule="nonzero"/><path fill="#cfe2f3" d="m337.69553 543.98816l0 0c0 -24.439636 20.700684 -44.251953 46.236237 -44.251953l0 0c12.262604 0 24.02298 4.662262 32.69394 12.961121c8.67099 8.298828 13.542267 19.554504 13.542267 31.290833l0 0c0 24.439697 -20.700653 44.252014 -46.236206 44.252014l0 0c-25.535553 0 -46.236237 -19.812317 -46.236237 -44.252014z" fill-rule="evenodd"/><path stroke="#000000" stroke-width="3.0" stroke-linejoin="round" stroke-linecap="butt" d="m337.69553 543.98816l0 0c0 -24.439636 20.700684 -44.251953 46.236237 -44.251953l0 0c12.262604 0 24.02298 4.662262 32.69394 12.961121c8.67099 8.298828 13.542267 19.554504 13.542267 31.290833l0 0c0 24.439697 -20.700653 44.252014 -46.236206 44.252014l0 0c-25.535553 0 -46.236237 -19.812317 -46.236237 -44.252014z" fill-rule="evenodd"/><path fill="#000000" d="m388.02515 540.8301l-1.625 0.125q-0.21875 -0.96875 -0.625 -1.40625q-0.65625 -0.703125 -1.640625 -0.703125q-0.78125 0 -1.375 0.4375q-0.765625 0.5625 -1.21875 1.65625q-0.453125 1.078125 -0.46875 3.078125q0.59375 -0.890625 1.453125 -1.328125q0.859375 -0.4375 1.796875 -0.4375q1.640625 0 2.78125 1.203125q1.15625 1.203125 1.15625 3.109375q0 1.265625 -0.546875 2.34375q-0.53125 1.078125 -1.484375 1.65625q-0.9375 0.578125 -2.140625 0.578125q-2.0625 0 -3.359375 -1.5q-1.28125 -1.515625 -1.28125 -4.984375q0 -3.875 1.421875 -5.625q1.25 -1.53125 3.375 -1.53125q1.5625 0 2.5625 0.890625q1.015625 0.875 1.21875 2.4375zm-6.6875 5.75q0 0.84375 0.359375 1.625q0.359375 0.765625 1.0 1.171875q0.640625 0.40625 1.359375 0.40625q1.03125 0 1.78125 -0.828125q0.75 -0.84375 0.75 -2.28125q0 -1.390625 -0.734375 -2.1875q-0.734375 -0.796875 -1.859375 -0.796875q-1.109375 0 -1.890625 0.796875q-0.765625 0.796875 -0.765625 2.09375z" fill-rule="nonzero"/><path fill="#cfe2f3" d="m168.67192 388.09317l0 0c0 -24.439667 20.700653 -44.251953 46.23622 -44.251953l0 0c12.262604 0 24.022964 4.6622314 32.69394 12.96109c8.670959 8.298859 13.542267 19.554504 13.542267 31.290863l0 0c0 24.439697 -20.700653 44.251984 -46.236206 44.251984l0 0c-25.535568 0 -46.23622 -19.812286 -46.23622 -44.251984z" fill-rule="evenodd"/><path stroke="#000000" stroke-width="3.0" stroke-linejoin="round" stroke-linecap="butt" d="m168.67192 388.09317l0 0c0 -24.439667 20.700653 -44.251953 46.23622 -44.251953l0 0c12.262604 0 24.022964 4.6622314 32.69394 12.96109c8.670959 8.298859 13.542267 19.554504 13.542267 31.290863l0 0c0 24.439697 -20.700653 44.251984 -46.236206 44.251984l0 0c-25.535568 0 -46.23622 -19.812286 -46.23622 -44.251984z" fill-rule="evenodd"/><path fill="#000000" d="m210.6109 383.4038l0 -1.578125l8.640625 0l0 1.28125q-1.28125 1.359375 -2.53125 3.609375q-1.25 2.25 -1.9375 4.625q-0.484375 1.671875 -0.625 3.671875l-1.6875 0q0.03125 -1.578125 0.625 -3.8125q0.59375 -2.234375 1.6875 -4.296875q1.109375 -2.078125 2.359375 -3.5l-6.53125 0z" fill-rule="nonzero"/><path fill="#cfe2f3" d="m368.958 315.8176l0 0c0 -24.439697 20.700653 -44.251984 46.236206 -44.251984l0 0c12.262634 0 24.02298 4.662262 32.69397 12.961121c8.670959 8.298828 13.542267 19.554504 13.542267 31.290863l0 0c0 24.439667 -20.700653 44.251953 -46.236237 44.251953l0 0c-25.535553 0 -46.236206 -19.812286 -46.236206 -44.251953z" fill-rule="evenodd"/><path stroke="#000000" stroke-width="3.0" stroke-linejoin="round" stroke-linecap="butt" d="m368.958 315.8176l0 0c0 -24.439697 20.700653 -44.251984 46.236206 -44.251984l0 0c12.262634 0 24.02298 4.662262 32.69397 12.961121c8.670959 8.298828 13.542267 19.554504 13.542267 31.290863l0 0c0 24.439667 -20.700653 44.251953 -46.236237 44.251953l0 0c-25.535553 0 -46.236206 -19.812286 -46.236206 -44.251953z" fill-rule="evenodd"/><path fill="#000000" d="m413.30325 315.5032q-1.015625 -0.375 -1.515625 -1.0625q-0.484375 -0.703125 -0.484375 -1.671875q0 -1.453125 1.046875 -2.4375q1.046875 -1.0 2.78125 -1.0q1.75 0 2.8125 1.015625q1.078125 1.015625 1.078125 2.46875q0 0.9375 -0.5 1.625q-0.484375 0.6875 -1.46875 1.0625q1.21875 0.390625 1.859375 1.28125q0.65625 0.890625 0.65625 2.140625q0 1.703125 -1.21875 2.875q-1.21875 1.171875 -3.1875 1.171875q-1.984375 0 -3.203125 -1.171875q-1.203125 -1.171875 -1.203125 -2.921875q0 -1.3125 0.65625 -2.1875q0.671875 -0.875 1.890625 -1.1875zm-0.328125 -2.78125q0 0.9375 0.609375 1.546875q0.609375 0.59375 1.59375 0.59375q0.9375 0 1.546875 -0.59375q0.609375 -0.59375 0.609375 -1.453125q0 -0.90625 -0.625 -1.515625q-0.625 -0.625 -1.5625 -0.625q-0.9375 0 -1.5625 0.609375q-0.609375 0.59375 -0.609375 1.4375zm-0.53125 6.15625q0 0.703125 0.328125 1.359375q0.34375 0.65625 1.0 1.015625q0.65625 0.359375 1.40625 0.359375q1.171875 0 1.9375 -0.75q0.765625 -0.75 0.765625 -1.921875q0 -1.1875 -0.796875 -1.953125q-0.78125 -0.78125 -1.953125 -0.78125q-1.15625 0 -1.921875 0.765625q-0.765625 0.765625 -0.765625 1.90625z" fill-rule="nonzero"/><path fill="#000000" fill-opacity="0.0" d="m195.25984 93.97769l128.88188 -6.3307114" fill-rule="evenodd"/><path stroke="#000000" stroke-width="1.0" stroke-linejoin="round" stroke-linecap="butt" d="m195.25984 93.97769l122.889114 -6.0363464" fill-rule="evenodd"/><path fill="#000000" stroke="#000000" stroke-width="1.0" stroke-linecap="butt" d="m318.22998 89.591095l4.451599 -1.8723907l-4.6136475 -1.4271011z" fill-rule="evenodd"/><path fill="#000000" fill-opacity="0.0" d="m337.69452 56.356113c0 -18.980541 -38.992126 -38.75242 -77.98425 -37.961082c-38.99214 0.79133797 -77.98427 22.145895 -77.98427 44.291794" fill-rule="evenodd"/><path stroke="#000000" stroke-width="1.0" stroke-linejoin="round" stroke-linecap="butt" d="m337.69452 56.356113c0 -18.980537 -38.992126 -38.75242 -77.98425 -37.961082c-19.496063 0.39566994 -38.992126 5.932144 -53.61418 14.137938c-7.31102 4.1028976 -13.403534 8.873123 -17.668304 14.001743c-2.1323853 2.564312 -3.8078308 5.2182198 -4.950165 7.923111c-0.57118225 1.3524437 -1.0090637 2.7176323 -1.304184 4.09074c-0.036880493 0.1716423 -0.0715332 0.34340286 -0.10395813 0.5152817l-0.036743164 0.2096405" fill-rule="evenodd"/><path fill="#000000" stroke="#000000" stroke-width="1.0" stroke-linecap="butt" d="m182.03273 59.27349l-1.0194244 -1.2207184l0.8435364 3.1780167l1.3965912 -2.9767227z" fill-rule="evenodd"/><path fill="#000000" fill-opacity="0.0" d="m181.71756 125.268555l33.196854 218.58267" fill-rule="evenodd"/><path stroke="#000000" stroke-width="1.0" stroke-linejoin="round" stroke-linecap="butt" d="m181.71756 125.268555l32.29593 212.6507" fill-rule="evenodd"/><path fill="#000000" stroke="#000000" stroke-width="1.0" stroke-linecap="butt" d="m212.3805 338.16727l2.3144073 4.2386475l0.9516144 -4.73468z" fill-rule="evenodd"/><path fill="#000000" fill-opacity="0.0" d="m416.62466 87.64698l106.39371 6.3307114" fill-rule="evenodd"/><path stroke="#000000" stroke-width="1.0" stroke-linejoin="round" stroke-linecap="butt" d="m416.62466 87.64698l100.40427 5.974327" fill-rule="evenodd"/><path fill="#000000" stroke="#000000" stroke-width="1.0" stroke-linecap="butt" d="m516.93085 95.27012l4.628235 -1.3792648l-4.432007 -1.9183655z" fill-rule="evenodd"/><path fill="#000000" fill-opacity="0.0" d="m370.38846 131.89896l-155.46457 211.93701" fill-rule="evenodd"/><path stroke="#000000" stroke-width="1.0" stroke-linejoin="round" stroke-linecap="butt" d="m370.38846 131.89896l-151.91573 207.09906" fill-rule="evenodd"/><path fill="#000000" stroke="#000000" stroke-width="1.0" stroke-linecap="butt" d="m217.14088 338.02106l-1.3523254 4.636139l4.015991 -2.6822205z" fill-rule="evenodd"/><path fill="#000000" fill-opacity="0.0" d="m569.2572 49.725723c0 -15.66534 -41.543274 -32.161385 -83.08661 -31.330677c-41.543304 0.83070946 -83.08661 18.98817 -83.08661 37.976345" fill-rule="evenodd"/><path stroke="#000000" stroke-width="1.0" stroke-linejoin="round" stroke-linecap="butt" d="m569.2572 49.725723c0 -15.66534 -41.543274 -32.161385 -83.08661 -31.330677c-20.771637 0.41535378 -41.543304 5.1623974 -57.12204 12.179123c-7.7893677 3.5083656 -14.280518 7.5841484 -18.82431 11.969601c-2.2719116 2.1927261 -4.0569763 4.4628754 -5.2740173 6.7782135c-0.15216064 0.28941727 -0.29541016 0.57954407 -0.4296875 0.8703079l-0.14266968 0.32026672" fill-rule="evenodd"/><path fill="#000000" stroke="#000000" stroke-width="1.0" stroke-linecap="butt" d="m402.76498 50.156372l0.6342468 4.7875137l2.5914917 -4.0751343z" fill-rule="evenodd"/><path fill="#000000" fill-opacity="0.0" d="m615.4934 93.97769l108.06305 40.18898" fill-rule="evenodd"/><path stroke="#000000" stroke-width="1.0" stroke-linejoin="round" stroke-linecap="butt" d="m615.4934 93.97769l102.43933 38.09752" fill-rule="evenodd"/><path fill="#000000" stroke="#000000" stroke-width="1.0" stroke-linecap="butt" d="m717.357 133.62334l4.8292236 0.033737183l-3.6777344 -3.130005z" fill-rule="evenodd"/><path fill="#000000" fill-opacity="0.0" d="m601.9512 125.268555l83.40155 330.14172" fill-rule="evenodd"/><path stroke="#000000" stroke-width="1.0" stroke-linejoin="round" stroke-linecap="butt" d="m601.9512 125.268555l81.93201 324.32446" fill-rule="evenodd"/><path fill="#000000" stroke="#000000" stroke-width="1.0" stroke-linecap="butt" d="m682.28174 449.9976l2.7129517 3.9953003l0.48986816 -4.804413z" fill-rule="evenodd"/><path fill="#000000" fill-opacity="0.0" d="m536.5633 125.268555l-88.66144 159.24411" fill-rule="evenodd"/><path stroke="#000000" stroke-width="1.0" stroke-linejoin="round" stroke-linecap="butt" d="m536.5633 125.268555l-85.74271 154.00186" fill-rule="evenodd"/><path fill="#000000" stroke="#000000" stroke-width="1.0" stroke-linecap="butt" d="m449.37744 278.46692l-0.7644348 4.768463l3.6506958 -3.161499z" fill-rule="evenodd"/><path fill="#000000" fill-opacity="0.0" d="m756.2441 121.21391c0 -48.244217 -38.574768 -89.17347 -77.1496 -96.488434c-38.574768 -7.3149605 -77.1496 18.984371 -77.1496 37.968742" fill-rule="evenodd"/><path stroke="#000000" stroke-width="1.0" stroke-linejoin="round" stroke-linecap="butt" d="m756.2441 121.21391c0 -48.244217 -38.574768 -89.17347 -77.1496 -96.488434c-19.287415 -3.6574802 -38.574768 1.0886135 -53.040344 9.122124c-7.232788 4.016754 -13.260071 8.855362 -17.479187 13.876305c-2.109558 2.5104752 -3.7670898 5.0665283 -4.897217 7.5882263c-0.14129639 0.31521606 -0.274292 0.62989044 -0.39892578 0.94387054c-0.062316895 0.15699387 -0.122558594 0.31381226 -0.18060303 0.4704361l-0.026733398 0.07450104" fill-rule="evenodd"/><path fill="#000000" stroke="#000000" stroke-width="1.0" stroke-linecap="butt" d="m601.44916 56.490803l0.77020264 4.7675247l2.4744873 -4.147236z" fill-rule="evenodd"/><path fill="#000000" fill-opacity="0.0" d="m788.93805 196.75674l59.77954 147.08661" fill-rule="evenodd"/><path stroke="#000000" stroke-width="1.0" stroke-linejoin="round" stroke-linecap="butt" d="m788.93805 196.75674l57.520447 141.52817" fill-rule="evenodd"/><path fill="#000000" stroke="#000000" stroke-width="1.0" stroke-linecap="butt" d="m844.92834 338.9068l3.2388306 3.5822449l-0.1784668 -4.82605z" fill-rule="evenodd"/><path fill="#000000" fill-opacity="0.0" d="m756.2441 209.71785l-70.897644 245.6693" fill-rule="evenodd"/><path stroke="#000000" stroke-width="1.0" stroke-linejoin="round" stroke-linecap="butt" d="m756.2441 209.71785l-69.23401 239.90453" fill-rule="evenodd"/><path fill="#000000" stroke="#000000" stroke-width="1.0" stroke-linecap="butt" d="m685.42316 449.1644l0.32867432 4.8181458l2.8452148 -3.9021606z" fill-rule="evenodd"/><path fill="#000000" fill-opacity="0.0" d="m881.4094 330.8832c0 -82.708664 -39.46454 -165.41733 -78.92914 -165.41733" fill-rule="evenodd"/><path stroke="#000000" stroke-width="1.0" stroke-linejoin="round" stroke-linecap="butt" d="m881.4094 330.8832c0 -41.35434 -9.866089 -82.708664 -24.665344 -113.72441c-7.399597 -15.507874 -16.03247 -28.431107 -25.281982 -37.47737c-4.624756 -4.5231323 -9.403687 -8.077011 -14.259644 -10.500122c-2.4280396 -1.2115479 -4.875244 -2.1404114 -7.3321533 -2.766388c-0.3071289 -0.07823181 -0.6143799 -0.15174866 -0.92181396 -0.2204895c-0.15368652 -0.03437805 -0.30743408 -0.06755066 -0.46118164 -0.09953308l-0.039245605 -0.007843018" fill-rule="evenodd"/><path fill="#000000" stroke="#000000" stroke-width="1.0" stroke-linecap="butt" d="m808.6191 164.44418l-4.6846924 1.1730499l4.3427124 2.112671z" fill-rule="evenodd"/><path fill="#000000" fill-opacity="0.0" d="m848.7155 406.42603l-130.67719 61.921265" fill-rule="evenodd"/><path stroke="#000000" stroke-width="1.0" stroke-linejoin="round" stroke-linecap="butt" d="m848.71545 406.42603l-125.255066 59.35199" fill-rule="evenodd"/><path fill="#000000" stroke="#000000" stroke-width="1.0" stroke-linecap="butt" d="m722.7531 464.2854l-3.3937378 3.4358826l4.8082886 -0.45062256z" fill-rule="evenodd"/><path fill="#000000" fill-opacity="0.0" d="m731.5748 499.64697c0.03149414 0 0.06298828 0.03149414 0.06298828 0.06298828" fill-rule="evenodd"/><path stroke="#000000" stroke-width="1.0" stroke-linejoin="round" stroke-linecap="butt" d="m731.5748 499.64697c0.03149414 0 0.06298828 0.03149414 0.06298828 0.06298828" fill-rule="evenodd"/><path fill="#000000" fill-opacity="0.0" d="m731.5748 499.64697c74.91333 0 149.82672 -40.125977 149.82672 -80.25195" fill-rule="evenodd"/><path stroke="#000000" stroke-width="1.0" stroke-linejoin="round" stroke-linecap="butt" d="m731.5748 499.64697c37.456665 0 74.91333 -10.031494 103.00586 -25.078735c14.046265 -7.5236206 25.751526 -16.301178 33.94513 -25.705719c4.096863 -4.70224 7.315796 -9.561249 9.510498 -14.498627c1.0973511 -2.4687195 1.9386597 -4.95697 2.5056763 -7.4550476c0.07086182 -0.31225586 0.13745117 -0.6246948 0.19970703 -0.93722534c0.03112793 -0.15628052 0.06121826 -0.31259155 0.090148926 -0.4689026l0.023620605 -0.13259888" fill-rule="evenodd"/><path fill="#000000" stroke="#000000" stroke-width="1.0" stroke-linecap="butt" d="m882.50037 425.52045l-1.2318726 -4.669586l-2.0578613 4.368927z" fill-rule="evenodd"/><path fill="#000000" fill-opacity="0.0" d="m685.33856 455.39502c0 -144.96063 12.3307495 -289.92126 24.661438 -289.92126" fill-rule="evenodd"/><path stroke="#000000" stroke-width="1.0" stroke-linejoin="round" stroke-linecap="butt" d="m685.33856 455.39502c0 -72.480316 3.0827026 -144.96063 7.706726 -199.32086c2.3120117 -27.18013 5.0093384 -49.83023 7.899353 -65.6853c1.4449463 -7.9275208 2.9381714 -14.156311 4.4554443 -18.403198c0.18963623 -0.5308533 0.3796997 -1.0307617 0.57006836 -1.4991302c0.047546387 -0.11709595 0.09515381 -0.23222351 0.14276123 -0.34536743l0.030456543 -0.07102966" fill-rule="evenodd"/><path fill="#000000" stroke="#000000" stroke-width="1.0" stroke-linecap="butt" d="m707.40875 171.1318l1.6516113 -4.538147l-4.182312 2.414795z" fill-rule="evenodd"/><path fill="#000000" fill-opacity="0.0" d="m639.10236 499.64697c-34.92914 0 -69.85828 -180.70865 -69.85828 -361.4173" fill-rule="evenodd"/><path stroke="#000000" stroke-width="1.0" stroke-linejoin="round" stroke-linecap="butt" d="m639.10236 499.64697c-17.464539 0 -34.92914 -45.177155 -48.027527 -112.9429c-6.5492554 -33.882874 -12.006897 -73.4129 -15.8272705 -115.76648c-1.9102173 -21.176804 -3.4110718 -43.059494 -4.434387 -65.29512c-0.5116577 -11.117828 -0.90393066 -22.323883 -1.1682739 -33.574066c-0.13220215 -5.6250763 -0.23236084 -11.2612 -0.29956055 -16.902832c-0.0335083 -2.8208008 -0.058898926 -5.64299 -0.07574463 -8.465881l-0.011169434 -2.470047" fill-rule="evenodd"/><path fill="#000000" stroke="#000000" stroke-width="1.0" stroke-linecap="butt" d="m570.91016 144.2257l-1.6625977 -4.534134l-1.6408691 4.5420227z" fill-rule="evenodd"/><path fill="#000000" fill-opacity="0.0" d="m639.10236 499.64697l-208.94489 44.346436" fill-rule="evenodd"/><path stroke="#000000" stroke-width="1.0" stroke-linejoin="round" stroke-linecap="butt" d="m639.10236 499.64697l-203.07562 43.10077" fill-rule="evenodd"/><path fill="#000000" stroke="#000000" stroke-width="1.0" stroke-linecap="butt" d="m435.6838 541.132l-4.096283 2.5579224l4.782135 0.67352295z" fill-rule="evenodd"/><path fill="#000000" fill-opacity="0.0" d="m416.6257 575.27905c0 18.980652 67.18109 41.882507 134.36221 37.961243c67.18109 -3.9212646 134.36218 -34.66565 134.36218 -69.3313" fill-rule="evenodd"/><path stroke="#000000" stroke-width="1.0" stroke-linejoin="round" stroke-linecap="butt" d="m416.6257 575.27905c0 18.980652 67.18109 41.882507 134.36221 37.961243c33.590515 -1.9606323 67.18109 -10.627014 92.37402 -23.136475c12.596436 -6.2547607 23.093506 -13.470276 30.441406 -21.288696c3.6739502 -3.9091797 6.560669 -7.969116 8.52887 -12.135071c0.9840698 -2.0830078 1.7385864 -4.192444 2.2470093 -6.322815c0.031799316 -0.13317871 0.062561035 -0.26641846 0.09246826 -0.3996582l0.018371582 -0.08502197" fill-rule="evenodd"/><path fill="#000000" stroke="#000000" stroke-width="1.0" stroke-linecap="butt" d="m686.3318 550.05426l-1.1425171 -4.6922607l-2.1408691 4.3288574z" fill-rule="evenodd"/><path fill="#000000" fill-opacity="0.0" d="m337.69553 543.98816l-90.078735 -124.59839" fill-rule="evenodd"/><path stroke="#000000" stroke-width="1.0" stroke-linejoin="round" stroke-linecap="butt" d="m337.69553 543.98816l-86.563446 -119.73602" fill-rule="evenodd"/><path fill="#000000" stroke="#000000" stroke-width="1.0" stroke-linecap="butt" d="m252.47064 423.28442l-3.997345 -2.7099304l1.320221 4.6453857z" fill-rule="evenodd"/><path fill="#000000" fill-opacity="0.0" d="m384.63516 499.72308l31.275604 -139.65353" fill-rule="evenodd"/><path stroke="#000000" stroke-width="1.0" stroke-linejoin="round" stroke-linecap="butt" d="m384.63516 499.72308l29.964355 -133.79855" fill-rule="evenodd"/><path fill="#000000" stroke="#000000" stroke-width="1.0" stroke-linecap="butt" d="m416.21133 366.2855l-0.62005615 -4.7893677l-2.6035461 4.067444z" fill-rule="evenodd"/><path fill="#000000" fill-opacity="0.0" d="m247.60208 356.8023l121.35434 -40.97638" fill-rule="evenodd"/><path stroke="#000000" stroke-width="1.0" stroke-linejoin="round" stroke-linecap="butt" d="m247.60208 356.80234l115.66965 -39.056946" fill-rule="evenodd"/><path fill="#000000" stroke="#000000" stroke-width="1.0" stroke-linecap="butt" d="m363.80014 319.31033l3.7711792 -3.0167236l-4.828003 -0.11312866z" fill-rule="evenodd"/><path fill="#000000" fill-opacity="0.0" d="m214.90814 432.34515c0 90.44769 34.078735 163.02924 68.15747 180.89539c34.078735 17.86615 68.15747 -18.983154 68.15747 -37.966248" fill-rule="evenodd"/><path stroke="#000000" stroke-width="1.0" stroke-linejoin="round" stroke-linecap="butt" d="m214.90814 432.34515c0 90.44769 34.078735 163.02924 68.15747 180.89539c17.039368 8.933044 34.078735 4.187256 46.858276 -5.164673c6.3897705 -4.6759033 11.714569 -10.503418 15.441925 -16.34845c1.863678 -2.9224854 3.328003 -5.849304 4.326416 -8.638733c0.12478638 -0.34869385 0.24230957 -0.69525146 0.352417 -1.0393677c0.05505371 -0.17199707 0.10824585 -0.34350586 0.15957642 -0.5142822l0.09655762 -0.3320923" fill-rule="evenodd"/><path fill="#000000" stroke="#000000" stroke-width="1.0" stroke-linecap="butt" d="m351.93286 581.45685l-0.93447876 -4.738037l-2.329712 4.2302246z" fill-rule="evenodd"/><path fill="#000000" fill-opacity="0.0" d="m214.90814 343.84122c0 -128.0945 54.629913 -256.189 109.25983 -256.189" fill-rule="evenodd"/><path stroke="#000000" stroke-width="1.0" stroke-linejoin="round" stroke-linecap="butt" d="m214.90814 343.84122c0 -128.0945 54.629913 -256.189 109.25983 -256.189" fill-rule="evenodd"/><path fill="#000000" fill-opacity="0.0" d="m182.21419 356.8023c0 -57.883057 -16.472443 -86.825134 -32.944885 -115.7661c-16.472427 -28.940933 -32.944878 -57.880722 -32.944878 -115.76146" fill-rule="evenodd"/><path stroke="#000000" stroke-width="1.0" stroke-linejoin="round" stroke-linecap="butt" d="m182.2142 356.80234c0 -57.883057 -16.472458 -86.825195 -32.9449 -115.76613c-8.236221 -14.470474 -16.472443 -28.940659 -22.649605 -47.02829c-3.0885773 -9.0438385 -5.6623993 -18.99205 -7.464073 -30.29683c-0.90083313 -5.6523895 -1.608635 -11.643921 -2.0912247 -18.031143c-0.24129486 -3.1936035 -0.42630005 -6.4861298 -0.5509567 -9.884644c-0.062339783 -1.6992493 -0.10958862 -3.425003 -0.14126587 -5.178131c-0.007911682 -0.43829346 -0.014862061 -0.87828064 -0.020820618 -1.3200073l-0.0066833496 -0.59539795" fill-rule="evenodd"/><path fill="#000000" stroke="#000000" stroke-width="1.0" stroke-linecap="butt" d="m116.34467 128.70178l1.1312103 1.1179199l-1.1428223 -3.0830765l-1.106308 3.096367z" fill-rule="evenodd"/><path fill="#000000" fill-opacity="0.0" d="m382.50027 347.10846c0 20.48819 -60.677155 40.97638 -121.35434 40.97638" fill-rule="evenodd"/><path stroke="#000000" stroke-width="1.0" stroke-linejoin="round" stroke-linecap="butt" d="m382.50027 347.10843c0 10.24411 -15.169281 20.48819 -37.923218 28.171265c-11.376953 3.8415222 -24.650085 7.042816 -38.871307 9.283722c-7.1105957 1.1204224 -14.458221 2.0007935 -21.924377 2.6010437c-3.7330627 0.30010986 -7.495758 0.5301819 -11.273254 0.6852417c-1.8887634 0.077545166 -3.7812195 0.13632202 -5.675537 0.17572021c-0.47357178 0.009857178 -0.9472656 0.018463135 -1.421051 0.025878906l-0.838562 0.010955811" fill-rule="evenodd"/><path fill="#000000" stroke="#000000" stroke-width="1.0" stroke-linecap="butt" d="m264.57297 388.06226l1.117157 -1.131958l-3.082306 1.1448975l3.097107 1.1042175z" fill-rule="evenodd"/><path fill="#000000" fill-opacity="0.0" d="m461.43045 315.8176c12.500061 0 28.909576 57.039368 25.000153 114.078735c-3.9094543 57.039368 -28.137878 114.078705 -56.275757 114.078705" fill-rule="evenodd"/><path stroke="#000000" stroke-width="1.0" stroke-linejoin="round" stroke-linecap="butt" d="m461.43045 315.8176c12.500092 0 28.909576 57.039368 25.000122 114.078735c-1.9547424 28.519684 -8.989166 57.039368 -19.052216 78.42914c-5.031494 10.694855 -10.820129 19.60727 -17.109528 25.845978c-3.1446838 3.1193237 -6.4145813 5.5702515 -9.777557 7.241272c-0.8407593 0.41778564 -1.6873474 0.78686523 -2.5392456 1.1053467c-0.42593384 0.15930176 -0.85324097 0.30596924 -1.2817383 0.4397583c-0.107177734 0.0335083 -0.21438599 0.066101074 -0.32165527 0.097961426l-0.25369263 0.07336426" fill-rule="evenodd"/><path fill="#000000" stroke="#000000" stroke-width="1.0" stroke-linecap="butt" d="m435.86206 541.4939l-4.259918 2.2750854l4.725647 0.9953613z" fill-rule="evenodd"/><path fill="#000000" fill-opacity="0.0" d="m415.1942 271.5656c0 -88.7874 53.921265 -177.5748 107.84253 -177.5748" fill-rule="evenodd"/><path stroke="#000000" stroke-width="1.0" stroke-linejoin="round" stroke-linecap="butt" d="m415.1942 271.5656c0 -88.7874 53.921265 -177.5748 107.84253 -177.5748" fill-rule="evenodd"/><path fill="#000000" fill-opacity="0.0" d="m204.29396 87.99475l36.409454 0l0 38.015747l-36.409454 0z" fill-rule="evenodd"/><path fill="#000000" d="m219.32521 114.91475l0 -3.203125l-5.796875 0l0 -1.5l6.09375 -8.65625l1.34375 0l0 8.65625l1.796875 0l0 1.5l-1.796875 0l0 3.203125l-1.640625 0zm0 -4.703125l0 -6.015625l-4.1875 6.015625l4.1875 0z" fill-rule="nonzero"/><path fill="#000000" fill-opacity="0.0" d="m162.4357 158.74016l36.40944 0l0 38.015747l-36.40944 0z" fill-rule="evenodd"/><path fill="#000000" d="m174.73257 178.42578q-1.015625 -0.375 -1.515625 -1.0625q-0.484375 -0.703125 -0.484375 -1.671875q0 -1.453125 1.046875 -2.4375q1.046875 -1.0 2.78125 -1.0q1.75 0 2.8125 1.015625q1.078125 1.015625 1.078125 2.46875q0 0.9375 -0.5 1.625q-0.484375 0.6875 -1.46875 1.0625q1.21875 0.390625 1.859375 1.28125q0.65625 0.890625 0.65625 2.140625q0 1.703125 -1.21875 2.875q-1.21875 1.171875 -3.1875 1.171875q-1.984375 0 -3.203125 -1.171875q-1.203125 -1.171875 -1.203125 -2.921875q0 -1.3125 0.65625 -2.1875q0.671875 -0.875 1.890625 -1.1875zm-0.328125 -2.78125q0 0.9375 0.609375 1.546875q0.609375 0.59375 1.59375 0.59375q0.9375 0 1.546875 -0.59375q0.609375 -0.59375 0.609375 -1.453125q0 -0.90625 -0.625 -1.515625q-0.625 -0.625 -1.5625 -0.625q-0.9375 0 -1.5625 0.609375q-0.609375 0.59375 -0.609375 1.4375zm-0.53125 6.15625q0 0.703125 0.328125 1.359375q0.34375 0.65625 1.0 1.015625q0.65625 0.359375 1.40625 0.359375q1.171875 0 1.9375 -0.75q0.765625 -0.75 0.765625 -1.921875q0 -1.1875 -0.796875 -1.953125q-0.78125 -0.78125 -1.953125 -0.78125q-1.15625 0 -1.921875 0.765625q-0.765625 0.765625 -0.765625 1.90625z" fill-rule="nonzero"/><path fill="#000000" fill-opacity="0.0" d="m247.60104 14.994751l36.409454 0l0 38.015747l-36.409454 0z" fill-rule="evenodd"/><path fill="#000000" d="m262.6323 41.91475l0 -3.203125l-5.796875 0l0 -1.5l6.09375 -8.65625l1.34375 0l0 8.65625l1.796875 0l0 1.5l-1.796875 0l0 3.203125l-1.640625 0zm0 -4.703125l0 -6.015625l-4.1875 6.015625l4.1875 0z" fill-rule="nonzero"/><path fill="#000000" fill-opacity="0.0" d="m416.63516 83.19948l36.409454 0l0 38.015747l-36.409454 0z" fill-rule="evenodd"/><path fill="#000000" d="m428.93204 102.8851q-1.015625 -0.375 -1.515625 -1.0625q-0.484375 -0.703125 -0.484375 -1.671875q0 -1.453125 1.046875 -2.4375q1.046875 -1.0 2.78125 -1.0q1.75 0 2.8125 1.015625q1.078125 1.015625 1.078125 2.46875q0 0.9375 -0.5 1.625q-0.484375 0.6875 -1.46875 1.0625q1.21875 0.390625 1.859375 1.28125q0.65625 0.890625 0.65625 2.140625q0 1.703125 -1.21875 2.875q-1.21875 1.171875 -3.1875 1.171875q-1.984375 0 -3.203125 -1.171875q-1.203125 -1.171875 -1.203125 -2.921875q0 -1.3125 0.65625 -2.1875q0.671875 -0.875 1.890625 -1.1875zm-0.328125 -2.78125q0 0.9375 0.609375 1.546875q0.609375 0.59375 1.59375 0.59375q0.9375 0 1.546875 -0.59375q0.609375 -0.59375 0.609375 -1.453125q0 -0.90625 -0.625 -1.515625q-0.625 -0.625 -1.5625 -0.625q-0.9375 0 -1.5625 0.609375q-0.609375 0.59375 -0.609375 1.4375zm-0.53125 6.15625q0 0.703125 0.328125 1.359375q0.34375 0.65625 1.0 1.015625q0.65625 0.359375 1.40625 0.359375q1.171875 0 1.9375 -0.75q0.765625 -0.75 0.765625 -1.921875q0 -1.1875 -0.796875 -1.953125q-0.78125 -0.78125 -1.953125 -0.78125q-1.15625 0 -1.921875 0.765625q-0.765625 0.765625 -0.765625 1.90625z" fill-rule="nonzero"/><path fill="#000000" fill-opacity="0.0" d="m288.81366 175.56693l48.881866 0l0 38.015747l-48.881866 0z" fill-rule="evenodd"/><path fill="#000000" d="m304.76678 202.48692l-1.640625 0l0 -10.453125q-0.59375 0.5625 -1.5625 1.140625q-0.953125 0.5625 -1.71875 0.84375l0 -1.59375q1.375 -0.640625 2.40625 -1.5625q1.03125 -0.921875 1.453125 -1.78125l1.0625 0l0 13.40625zm8.990295 0l-1.640625 0l0 -10.453125q-0.59375 0.5625 -1.5625 1.140625q-0.953125 0.5625 -1.71875 0.84375l0 -1.59375q1.375 -0.640625 2.40625 -1.5625q1.03125 -0.921875 1.453125 -1.78125l1.0625 0l0 13.40625z" fill-rule="nonzero"/><path fill="#000000" fill-opacity="0.0" d="m474.02887 14.994751l36.409454 0l0 38.015747l-36.409454 0z" fill-rule="evenodd"/><path fill="#000000" d="m486.32574 34.680374q-1.015625 -0.375 -1.515625 -1.0625q-0.484375 -0.703125 -0.484375 -1.671875q0 -1.453125 1.046875 -2.4375q1.046875 -1.0 2.78125 -1.0q1.75 0 2.8125 1.015625q1.078125 1.015625 1.078125 2.46875q0 0.9375 -0.5 1.625q-0.484375 0.6875 -1.46875 1.0625q1.21875 0.390625 1.859375 1.28125q0.65625 0.890625 0.65625 2.140625q0 1.703125 -1.21875 2.875q-1.21875 1.171875 -3.1875 1.171875q-1.984375 0 -3.203125 -1.171875q-1.203125 -1.171875 -1.203125 -2.921875q0 -1.3125 0.65625 -2.1875q0.671875 -0.875 1.890625 -1.1875zm-0.328125 -2.78125q0 0.9375 0.609375 1.546875q0.609375 0.59375 1.59375 0.59375q0.9375 0 1.546875 -0.59375q0.609375 -0.59375 0.609375 -1.453125q0 -0.90625 -0.625 -1.515625q-0.625 -0.625 -1.5625 -0.625q-0.9375 0 -1.5625 0.609375q-0.609375 0.59375 -0.609375 1.4375zm-0.53125 6.15625q0 0.703125 0.328125 1.359375q0.34375 0.65625 1.0 1.015625q0.65625 0.359375 1.40625 0.359375q1.171875 0 1.9375 -0.75q0.765625 -0.75 0.765625 -1.921875q0 -1.1875 -0.796875 -1.953125q-0.78125 -0.78125 -1.953125 -0.78125q-1.15625 0 -1.921875 0.765625q-0.765625 0.765625 -0.765625 1.90625z" fill-rule="nonzero"/><path fill="#000000" fill-opacity="0.0" d="m639.10236 113.99475l36.409485 0l0 38.015747l-36.409485 0z" fill-rule="evenodd"/><path fill="#000000" d="m648.993 129.30537l0 -1.578125l8.640625 0l0 1.28125q-1.28125 1.359375 -2.53125 3.609375q-1.25 2.25 -1.9375 4.625q-0.484375 1.671875 -0.625 3.671875l-1.6875 0q0.03125 -1.578125 0.625 -3.8125q0.59375 -2.234375 1.6875 -4.296875q1.109375 -2.078125 2.359375 -3.5l-6.53125 0z" fill-rule="nonzero"/><path fill="#000000" fill-opacity="0.0" d="m620.5801 171.70341l36.409424 0l0 38.015747l-36.409424 0z" fill-rule="evenodd"/><path fill="#000000" d="m635.6113 198.62341l0 -3.203125l-5.796875 0l0 -1.5l6.09375 -8.65625l1.34375 0l0 8.65625l1.796875 0l0 1.5l-1.796875 0l0 3.203125l-1.640625 0zm0 -4.703125l0 -6.015625l-4.1875 6.015625l4.1875 0z" fill-rule="nonzero"/><path fill="#000000" fill-opacity="0.0" d="m483.72046 196.74016l36.409485 0l0 38.015747l-36.409485 0z" fill-rule="evenodd"/><path fill="#000000" d="m502.11108 222.08203l0 1.578125l-8.828125 0q-0.015625 -0.59375 0.1875 -1.140625q0.34375 -0.90625 1.078125 -1.78125q0.75 -0.875 2.15625 -2.015625q2.171875 -1.78125 2.9375 -2.828125q0.765625 -1.046875 0.765625 -1.96875q0 -0.984375 -0.703125 -1.640625q-0.6875 -0.671875 -1.8125 -0.671875q-1.1875 0 -1.90625 0.71875q-0.703125 0.703125 -0.703125 1.953125l-1.6875 -0.171875q0.171875 -1.890625 1.296875 -2.875q1.140625 -0.984375 3.03125 -0.984375q1.921875 0 3.046875 1.0625q1.125 1.0625 1.125 2.640625q0 0.796875 -0.328125 1.578125q-0.328125 0.78125 -1.09375 1.640625q-0.75 0.84375 -2.53125 2.34375q-1.46875 1.234375 -1.890625 1.6875q-0.421875 0.4375 -0.6875 0.875l6.546875 0z" fill-rule="nonzero"/><path fill="#000000" fill-opacity="0.0" d="m688.3307 36.99475l36.409485 0l0 38.015747l-36.409485 0z" fill-rule="evenodd"/><path fill="#000000" d="m698.2213 52.305374l0 -1.578125l8.640625 0l0 1.28125q-1.28125 1.359375 -2.53125 3.609375q-1.25 2.25 -1.9375 4.625q-0.484375 1.671875 -0.625 3.671875l-1.6875 0q0.03125 -1.578125 0.625 -3.8125q0.59375 -2.234375 1.6875 -4.296875q1.109375 -2.078125 2.359375 -3.5l-6.53125 0z" fill-rule="nonzero"/><path fill="#000000" fill-opacity="0.0" d="m809.29395 218.86089l36.409485 0l0 38.015762l-36.409485 0z" fill-rule="evenodd"/><path fill="#000000" d="m819.3096 242.68713l1.578125 -0.140625q0.203125 1.109375 0.765625 1.609375q0.5625 0.5 1.453125 0.5q0.75 0 1.3125 -0.34375q0.578125 -0.34375 0.9375 -0.921875q0.375 -0.578125 0.609375 -1.5625q0.25 -0.984375 0.25 -2.0q0 -0.109375 0 -0.328125q-0.5 0.78125 -1.359375 1.265625q-0.84375 0.484375 -1.828125 0.484375q-1.671875 0 -2.8125 -1.203125q-1.140625 -1.203125 -1.140625 -3.171875q0 -2.03125 1.1875 -3.265625q1.203125 -1.234375 3.0 -1.234375q1.3125 0 2.390625 0.703125q1.078125 0.703125 1.640625 2.0q0.5625 1.296875 0.5625 3.75q0 2.5625 -0.5625 4.078125q-0.5625 1.515625 -1.65625 2.3125q-1.09375 0.796875 -2.578125 0.796875q-1.5625 0 -2.5625 -0.875q-0.984375 -0.875 -1.1875 -2.453125zm6.71875 -5.890625q0 -1.40625 -0.75 -2.234375q-0.75 -0.828125 -1.8125 -0.828125q-1.09375 0 -1.90625 0.890625q-0.8125 0.890625 -0.8125 2.3125q0 1.28125 0.765625 2.078125q0.78125 0.796875 1.90625 0.796875q1.140625 0 1.875 -0.796875q0.734375 -0.796875 0.734375 -2.21875z" fill-rule="nonzero"/><path fill="#000000" fill-opacity="0.0" d="m722.6811 287.58282l53.57483 0l0 40.97638l-53.57483 0z" fill-rule="evenodd"/><path fill="#000000" d="m738.6342 314.50284l-1.640625 0l0 -10.453125q-0.59375 0.5625 -1.5625 1.140625q-0.953125 0.5625 -1.71875 0.84375l0 -1.59375q1.375 -0.640625 2.40625 -1.5625q1.03125 -0.921875 1.453125 -1.78125l1.0625 0l0 13.40625zm9.453857 0l0 -3.203125l-5.796875 0l0 -1.5l6.09375 -8.65625l1.34375 0l0 8.65625l1.796875 0l0 1.5l-1.796875 0l0 3.203125l-1.640625 0zm0 -4.703125l0 -6.015625l-4.1875 6.015625l4.1875 0z" fill-rule="nonzero"/><path fill="#000000" fill-opacity="0.0" d="m872.3018 218.86089l36.409485 0l0 38.015762l-36.409485 0z" fill-rule="evenodd"/><path fill="#000000" d="m882.31744 242.68713l1.578125 -0.140625q0.203125 1.109375 0.765625 1.609375q0.5625 0.5 1.453125 0.5q0.75 0 1.3125 -0.34375q0.578125 -0.34375 0.9375 -0.921875q0.375 -0.578125 0.609375 -1.5625q0.25 -0.984375 0.25 -2.0q0 -0.109375 0 -0.328125q-0.5 0.78125 -1.359375 1.265625q-0.84375 0.484375 -1.828125 0.484375q-1.671875 0 -2.8125 -1.203125q-1.140625 -1.203125 -1.140625 -3.171875q0 -2.03125 1.1875 -3.265625q1.203125 -1.234375 3.0 -1.234375q1.3125 0 2.390625 0.703125q1.078125 0.703125 1.640625 2.0q0.5625 1.296875 0.5625 3.75q0 2.5625 -0.5625 4.078125q-0.5625 1.515625 -1.65625 2.3125q-1.09375 0.796875 -2.578125 0.796875q-1.5625 0 -2.5625 -0.875q-0.984375 -0.875 -1.1875 -2.453125zm6.71875 -5.890625q0 -1.40625 -0.75 -2.234375q-0.75 -0.828125 -1.8125 -0.828125q-1.09375 0 -1.90625 0.890625q-0.8125 0.890625 -0.8125 2.3125q0 1.28125 0.765625 2.078125q0.78125 0.796875 1.90625 0.796875q1.140625 0 1.875 -0.796875q0.734375 -0.796875 0.734375 -2.21875z" fill-rule="nonzero"/><path fill="#000000" fill-opacity="0.0" d="m771.2677 394.33072l48.881897 0l0 38.015747l-48.881897 0z" fill-rule="evenodd"/><path fill="#000000" d="m787.2208 421.2507l-1.640625 0l0 -10.453125q-0.59375 0.5625 -1.5625 1.140625q-0.953125 0.5625 -1.71875 0.84375l0 -1.59375q1.375 -0.640625 2.40625 -1.5625q1.03125 -0.921875 1.453125 -1.78125l1.0625 0l0 13.40625zm4.2038574 -6.59375q0 -2.359375 0.484375 -3.796875q0.484375 -1.453125 1.4375 -2.234375q0.96875 -0.78125 2.421875 -0.78125q1.078125 0 1.890625 0.4375q0.8125 0.421875 1.328125 1.25q0.53125 0.8125 0.828125 1.984375q0.3125 1.15625 0.3125 3.140625q0 2.359375 -0.484375 3.8125q-0.484375 1.4375 -1.453125 2.234375q-0.953125 0.78125 -2.421875 0.78125q-1.921875 0 -3.03125 -1.390625q-1.3125 -1.671875 -1.3125 -5.4375zm1.671875 0q0 3.296875 0.765625 4.390625q0.78125 1.078125 1.90625 1.078125q1.140625 0 1.90625 -1.09375q0.765625 -1.09375 0.765625 -4.375q0 -3.296875 -0.765625 -4.375q-0.765625 -1.078125 -1.921875 -1.078125q-1.125 0 -1.796875 0.953125q-0.859375 1.21875 -0.859375 4.5z" fill-rule="nonzero"/><path fill="#000000" fill-opacity="0.0" d="m824.1102 476.99475l53.57483 0l0 31.590546l-53.57483 0z" fill-rule="evenodd"/><path fill="#000000" d="m840.06335 503.91473l-1.640625 0l0 -10.453125q-0.59375 0.5625 -1.5625 1.140625q-0.953125 0.5625 -1.71875 0.84375l0 -1.59375q1.375 -0.640625 2.40625 -1.5625q1.03125 -0.921875 1.453125 -1.78125l1.0625 0l0 13.40625zm4.2038574 -6.59375q0 -2.359375 0.484375 -3.796875q0.484375 -1.453125 1.4375 -2.234375q0.96875 -0.78125 2.421875 -0.78125q1.078125 0 1.890625 0.4375q0.8125 0.421875 1.328125 1.25q0.53125 0.8125 0.828125 1.984375q0.3125 1.15625 0.3125 3.140625q0 2.359375 -0.484375 3.8125q-0.484375 1.4375 -1.453125 2.234375q-0.953125 0.78125 -2.421875 0.78125q-1.921875 0 -3.03125 -1.390625q-1.3125 -1.671875 -1.3125 -5.4375zm1.671875 0q0 3.296875 0.765625 4.390625q0.78125 1.078125 1.90625 1.078125q1.140625 0 1.90625 -1.09375q0.765625 -1.09375 0.765625 -4.375q0 -3.296875 -0.765625 -4.375q-0.765625 -1.078125 -1.921875 -1.078125q-1.125 0 -1.796875 0.953125q-0.859375 1.21875 -0.859375 4.5z" fill-rule="nonzero"/><path fill="#000000" fill-opacity="0.0" d="m544.85565 480.6404l36.409424 0l0 38.015778l-36.409424 0z" fill-rule="evenodd"/><path fill="#000000" d="m563.2463 505.9823l0 1.578125l-8.828125 0q-0.015625 -0.59375 0.1875 -1.140625q0.34375 -0.90625 1.078125 -1.78125q0.75 -0.875 2.15625 -2.015625q2.171875 -1.78125 2.9375 -2.828125q0.765625 -1.046875 0.765625 -1.96875q0 -0.984375 -0.703125 -1.640625q-0.6875 -0.671875 -1.8125 -0.671875q-1.1875 0 -1.90625 0.71875q-0.703125 0.703125 -0.703125 1.953125l-1.6875 -0.171875q0.171875 -1.890625 1.296875 -2.875q1.140625 -0.984375 3.03125 -0.984375q1.921875 0 3.046875 1.0625q1.125 1.0625 1.125 2.640625q0 0.796875 -0.328125 1.578125q-0.328125 0.78125 -1.09375 1.640625q-0.75 0.84375 -2.53125 2.34375q-1.46875 1.234375 -1.890625 1.6875q-0.421875 0.4375 -0.6875 0.875l6.546875 0z" fill-rule="nonzero"/><path fill="#000000" fill-opacity="0.0" d="m689.57874 229.64305l48.881897 0l0 38.01573l-48.881897 0z" fill-rule="evenodd"/><path fill="#000000" d="m705.53186 256.56305l-1.640625 0l0 -10.453125q-0.59375 0.5625 -1.5625 1.140625q-0.953125 0.5625 -1.71875 0.84375l0 -1.59375q1.375 -0.640625 2.40625 -1.5625q1.03125 -0.921875 1.453125 -1.78125l1.0625 0l0 13.40625zm9.453857 0l0 -3.203125l-5.796875 0l0 -1.5l6.09375 -8.65625l1.34375 0l0 8.65625l1.796875 0l0 1.5l-1.796875 0l0 3.203125l-1.640625 0zm0 -4.703125l0 -6.015625l-4.1875 6.015625l4.1875 0z" fill-rule="nonzero"/><path fill="#000000" fill-opacity="0.0" d="m555.1837 299.93176l36.409485 0l0 38.015747l-36.409485 0z" fill-rule="evenodd"/><path fill="#000000" d="m570.21497 326.85175l0 -3.203125l-5.796875 0l0 -1.5l6.09375 -8.65625l1.34375 0l0 8.65625l1.796875 0l0 1.5l-1.796875 0l0 3.203125l-1.640625 0zm0 -4.703125l0 -6.015625l-4.1875 6.015625l4.1875 0z" fill-rule="nonzero"/><path fill="#000000" fill-opacity="0.0" d="m551.0525 584.56433l36.409424 0l0 38.015747l-36.409424 0z" fill-rule="evenodd"/><path fill="#000000" d="m569.4431 609.9062l0 1.578125l-8.828125 0q-0.015625 -0.59375 0.1875 -1.140625q0.34375 -0.90625 1.078125 -1.78125q0.75 -0.875 2.15625 -2.015625q2.171875 -1.78125 2.9375 -2.828125q0.765625 -1.046875 0.765625 -1.96875q0 -0.984375 -0.703125 -1.640625q-0.6875 -0.671875 -1.8125 -0.671875q-1.1875 0 -1.90625 0.71875q-0.703125 0.703125 -0.703125 1.953125l-1.6875 -0.171875q0.171875 -1.890625 1.296875 -2.875q1.140625 -0.984375 3.03125 -0.984375q1.921875 0 3.046875 1.0625q1.125 1.0625 1.125 2.640625q0 0.796875 -0.328125 1.578125q-0.328125 0.78125 -1.09375 1.640625q-0.75 0.84375 -2.53125 2.34375q-1.46875 1.234375 -1.890625 1.6875q-0.421875 0.4375 -0.6875 0.875l6.546875 0z" fill-rule="nonzero"/><path fill="#000000" fill-opacity="0.0" d="m390.4357 424.85303l36.409454 0l0 38.015747l-36.409454 0z" fill-rule="evenodd"/><path fill="#000000" d="m408.71695 441.6949l-1.625 0.125q-0.21875 -0.96875 -0.625 -1.40625q-0.65625 -0.703125 -1.640625 -0.703125q-0.78125 0 -1.375 0.4375q-0.765625 0.5625 -1.21875 1.65625q-0.453125 1.078125 -0.46875 3.078125q0.59375 -0.890625 1.453125 -1.328125q0.859375 -0.4375 1.796875 -0.4375q1.640625 0 2.78125 1.203125q1.15625 1.203125 1.15625 3.109375q0 1.265625 -0.546875 2.34375q-0.53125 1.078125 -1.484375 1.65625q-0.9375 0.578125 -2.140625 0.578125q-2.0625 0 -3.359375 -1.5q-1.28125 -1.515625 -1.28125 -4.984375q0 -3.875 1.421875 -5.625q1.25 -1.53125 3.375 -1.53125q1.5625 0 2.5625 0.890625q1.015625 0.875 1.21875 2.4375zm-6.6875 5.75q0 0.84375 0.359375 1.625q0.359375 0.765625 1.0 1.171875q0.640625 0.40625 1.359375 0.40625q1.03125 0 1.78125 -0.828125q0.75 -0.84375 0.75 -2.28125q0 -1.390625 -0.734375 -2.1875q-0.734375 -0.796875 -1.859375 -0.796875q-1.109375 0 -1.890625 0.796875q-0.765625 0.796875 -0.765625 2.09375z" fill-rule="nonzero"/><path fill="#000000" fill-opacity="0.0" d="m284.0105 450.85303l36.409454 0l0 38.015747l-36.409454 0z" fill-rule="evenodd"/><path fill="#000000" d="m299.96362 477.773l-1.640625 0l0 -10.453125q-0.59375 0.5625 -1.5625 1.140625q-0.953125 0.5625 -1.71875 0.84375l0 -1.59375q1.375 -0.640625 2.40625 -1.5625q1.03125 -0.921875 1.453125 -1.78125l1.0625 0l0 13.40625z" fill-rule="nonzero"/><path fill="#000000" fill-opacity="0.0" d="m99.34121 185.8819l36.409447 0l0 38.015747l-36.409447 0z" fill-rule="evenodd"/><path fill="#000000" d="m111.638084 205.56752q-1.015625 -0.375 -1.515625 -1.0625q-0.484375 -0.703125 -0.484375 -1.671875q0 -1.453125 1.046875 -2.4375q1.046875 -1.0 2.78125 -1.0q1.75 0 2.8125 1.015625q1.078125 1.015625 1.078125 2.46875q0 0.9375 -0.5 1.625q-0.484375 0.6875 -1.46875 1.0625q1.21875 0.390625 1.859375 1.28125q0.65625 0.890625 0.65625 2.140625q0 1.703125 -1.21875 2.875q-1.21875 1.171875 -3.1875 1.171875q-1.984375 0 -3.203125 -1.171875q-1.203125 -1.171875 -1.203125 -2.921875q0 -1.3125 0.65625 -2.1875q0.671875 -0.875 1.890625 -1.1875zm-0.328125 -2.78125q0 0.9375 0.609375 1.546875q0.609375 0.59375 1.59375 0.59375q0.9375 0 1.546875 -0.59375q0.609375 -0.59375 0.609375 -1.453125q0 -0.90625 -0.625 -1.515625q-0.625 -0.625 -1.5625 -0.625q-0.9375 0 -1.5625 0.609375q-0.609375 0.59375 -0.609375 1.4375zm-0.53125 6.15625q0 0.703125 0.328125 1.359375q0.34375 0.65625 1.0 1.015625q0.65625 0.359375 1.40625 0.359375q1.171875 0 1.9375 -0.75q0.765625 -0.75 0.765625 -1.921875q0 -1.1875 -0.796875 -1.953125q-0.78125 -0.78125 -1.953125 -0.78125q-1.15625 0 -1.921875 0.765625q-0.765625 0.765625 -0.765625 1.90625z" fill-rule="nonzero"/><path fill="#000000" fill-opacity="0.0" d="m224.73753 138.23097l48.88188 0l0 40.97638l-48.88188 0z" fill-rule="evenodd"/><path fill="#000000" d="m240.69066 165.15097l-1.640625 0l0 -10.453125q-0.59375 0.5625 -1.5625 1.140625q-0.953125 0.5625 -1.71875 0.84375l0 -1.59375q1.375 -0.640625 2.40625 -1.5625q1.03125 -0.921875 1.453125 -1.78125l1.0625 0l0 13.40625zm8.990295 0l-1.640625 0l0 -10.453125q-0.59375 0.5625 -1.5625 1.140625q-0.953125 0.5625 -1.71875 0.84375l0 -1.59375q1.375 -0.640625 2.40625 -1.5625q1.03125 -0.921875 1.453125 -1.78125l1.0625 0l0 13.40625z" fill-rule="nonzero"/><path fill="#000000" fill-opacity="0.0" d="m204.29396 524.9816l36.409454 0l0 38.015747l-36.409454 0z" fill-rule="evenodd"/><path fill="#000000" d="m220.24709 551.9016l-1.640625 0l0 -10.453125q-0.59375 0.5625 -1.5625 1.140625q-0.953125 0.5625 -1.71875 0.84375l0 -1.59375q1.375 -0.640625 2.40625 -1.5625q1.03125 -0.921875 1.453125 -1.78125l1.0625 0l0 13.40625z" fill-rule="nonzero"/><path fill="#000000" fill-opacity="0.0" d="m284.0105 309.09186l36.409454 0l0 38.015747l-36.409454 0z" fill-rule="evenodd"/><path fill="#000000" d="m293.90112 324.4025l0 -1.578125l8.640625 0l0 1.28125q-1.28125 1.359375 -2.53125 3.609375q-1.25 2.25 -1.9375 4.625q-0.484375 1.671875 -0.625 3.671875l-1.6875 0q0.03125 -1.578125 0.625 -3.8125q0.59375 -2.234375 1.6875 -4.296875q1.109375 -2.078125 2.359375 -3.5l-6.53125 0z" fill-rule="nonzero"/><path fill="#000000" fill-opacity="0.0" d="m303.61942 379.97244l36.409454 0l0 38.015747l-36.409454 0z" fill-rule="evenodd"/><path fill="#000000" d="m313.51004 395.28305l0 -1.578125l8.640625 0l0 1.28125q-1.28125 1.359375 -2.53125 3.609375q-1.25 2.25 -1.9375 4.625q-0.484375 1.671875 -0.625 3.671875l-1.6875 0q0.03125 -1.578125 0.625 -3.8125q0.59375 -2.234375 1.6875 -4.296875q1.109375 -2.078125 2.359375 -3.5l-6.53125 0z" fill-rule="nonzero"/><path fill="#000000" fill-opacity="0.0" d="m399.542 177.38321l36.409454 0l0 38.015747l-36.409454 0z" fill-rule="evenodd"/><path fill="#000000" d="m417.93262 202.72508l0 1.578125l-8.828125 0q-0.015625 -0.59375 0.1875 -1.140625q0.34375 -0.90625 1.078125 -1.78125q0.75 -0.875 2.15625 -2.015625q2.171875 -1.78125 2.9375 -2.828125q0.765625 -1.046875 0.765625 -1.96875q0 -0.984375 -0.703125 -1.640625q-0.6875 -0.671875 -1.8125 -0.671875q-1.1875 0 -1.90625 0.71875q-0.703125 0.703125 -0.703125 1.953125l-1.6875 -0.171875q0.171875 -1.890625 1.296875 -2.875q1.140625 -0.984375 3.03125 -0.984375q1.921875 0 3.046875 1.0625q1.125 1.0625 1.125 2.640625q0 0.796875 -0.328125 1.578125q-0.328125 0.78125 -1.09375 1.640625q-0.75 0.84375 -2.53125 2.34375q-1.46875 1.234375 -1.890625 1.6875q-0.421875 0.4375 -0.6875 0.875l6.546875 0z" fill-rule="nonzero"/></g></svg>