<svg version="1.1" viewBox="450.0 200.0 960.0 720.0" fill="none" stroke="none" stroke-linecap="square" stroke-miterlimit="10" xmlns:xlink="http://www.w3.org/1999/xlink" xmlns="http://www.w3.org/2000/svg"><clipPath id="p.0"><path d="m0 0l960.0 0l0 720.0l-960.0 0l0 -720.0z" clip-rule="nonzero"/></clipPath><g clip-path="url(#p.0)"><path fill="#000000" fill-opacity="0.0" d="m0 0l960.0 0l0 720.0l-960.0 0z" fill-rule="evenodd"/><path fill="#cfe2f3" d="m480.0 278.78873l0 0c0 -24.439697 20.700653 -44.251984 46.236206 -44.251984l0 0c12.262634 0 24.02301 4.6622467 32.69397 12.961105c8.670959 8.298859 13.542236 19.55452 13.542236 31.290878l0 0c0 24.439667 -20.700623 44.251953 -46.236206 44.251953l0 0c-25.535553 0 -46.236206 -19.812286 -46.236206 -44.251953z" fill-rule="evenodd"/><path stroke="#000000" stroke-width="3.0" stroke-linejoin="round" stroke-linecap="butt" d="m480.0 278.78873l0 0c0 -24.439697 20.700653 -44.251984 46.236206 -44.251984l0 0c12.262634 0 24.02301 4.6622467 32.69397 12.961105c8.670959 8.298859 13.542236 19.55452 13.542236 31.290878l0 0c0 24.439667 -20.700623 44.251953 -46.236206 44.251953l0 0c-25.535553 0 -46.236206 -19.812286 -46.236206 -44.251953z" fill-rule="evenodd"/><path fill="#000000" d="m521.8296 279.11496q0 -2.359375 0.484375 -3.796875q0.484375 -1.453125 1.4375 -2.234375q0.96875 -0.78125 2.421875 -0.78125q1.078125 0 1.890625 0.4375q0.8125 0.421875 1.328125 1.25q0.53125 0.8125 0.828125 1.984375q0.3125 1.15625 0.3125 3.140625q0 2.359375 -0.484375 3.8125q-0.484375 1.4375 -1.453125 2.234375q-0.953125 0.78125 -2.421875 0.78125q-1.921875 0 -3.03125 -1.390625q-1.3125 -1.671875 -1.3125 -5.4375zm1.671875 0q0 3.296875 0.765625 4.390625q0.78125 1.078125 1.90625 1.078125q1.140625 0 1.90625 -1.09375q0.765625 -1.09375 0.765625 -4.375q0 -3.296875 -0.765625 -4.375q-0.765625 -1.078125 -1.921875 -1.078125q-1.125 0 -1.796875 0.953125q-0.859375 1.21875 -0.859375 4.5z" fill-rule="nonzero"/><path fill="#cfe2f3" d="m817.5748 343.53674l0 0c0 -24.439697 20.700623 -44.251953 46.236206 -44.251953l0 0c12.262573 0 24.02295 4.6622314 32.69391 12.96109c8.6710205 8.298859 13.542297 19.554504 13.542297 31.290863l0 0c0 24.439697 -20.700684 44.251984 -46.236206 44.251984l0 0c-25.535583 0 -46.236206 -19.812286 -46.236206 -44.251984z" fill-rule="evenodd"/><path stroke="#000000" stroke-width="3.0" stroke-linejoin="round" stroke-linecap="butt" d="m817.5748 343.53674l0 0c0 -24.439697 20.700623 -44.251953 46.236206 -44.251953l0 0c12.262573 0 24.02295 4.6622314 32.69391 12.96109c8.6710205 8.298859 13.542297 19.554504 13.542297 31.290863l0 0c0 24.439697 -20.700684 44.251984 -46.236206 44.251984l0 0c-25.535583 0 -46.236206 -19.812286 -46.236206 -44.251984z" fill-rule="evenodd"/><path fill="#000000" d="m865.5763 350.45676l-1.640625 0l0 -10.453125q-0.59375 0.5625 -1.5625 1.140625q-0.953125 0.5625 -1.71875 0.84375l0 -1.59375q1.375 -0.640625 2.40625 -1.5625q1.03125 -0.921875 1.453125 -1.78125l1.0625 0l0 13.40625z" fill-rule="nonzero"/><path fill="#cfe2f3" d="m502.7139 623.4895l0 0c0 -24.439697 20.700653 -44.251953 46.236237 -44.251953l0 0c12.262634 0 24.02295 4.6622314 32.69397 12.96106c8.670959 8.298889 13.542236 19.554565 13.542236 31.290894l0 0c0 24.439697 -20.700623 44.251953 -46.236206 44.251953l0 0c-25.535583 0 -46.236237 -19.812256 -46.236237 -44.251953z" fill-rule="evenodd"/><path stroke="#000000" stroke-width="3.0" stroke-linejoin="round" stroke-linecap="butt" d="m502.7139 623.4895l0 0c0 -24.439697 20.700653 -44.251953 46.236237 -44.251953l0 0c12.262634 0 24.02295 4.6622314 32.69397 12.96106c8.670959 8.298889 13.542236 19.554565 13.542236 31.290894l0 0c0 24.439697 -20.700623 44.251953 -46.236206 44.251953l0 0c-25.535583 0 -46.236237 -19.812256 -46.236237 -44.251953z" fill-rule="evenodd"/><path fill="#000000" d="m553.1529 628.83136l0 1.578125l-8.828125 0q-0.015625 -0.59375 0.1875 -1.140625q0.34375 -0.90625 1.078125 -1.78125q0.75 -0.875 2.15625 -2.015625q2.171875 -1.78125 2.9375 -2.828125q0.765625 -1.046875 0.765625 -1.96875q0 -0.984375 -0.703125 -1.640625q-0.6875 -0.671875 -1.8125 -0.671875q-1.1875 0 -1.90625 0.71875q-0.703125 0.703125 -0.703125 1.953125l-1.6875 -0.171875q0.171875 -1.890625 1.296875 -2.875q1.140625 -0.984375 3.03125 -0.984375q1.921875 0 3.046875 1.0625q1.125 1.0625 1.125 2.640625q0 0.796875 -0.328125 1.578125q-0.328125 0.78125 -1.09375 1.640625q-0.75 0.84375 -2.53125 2.34375q-1.46875 1.234375 -1.890625 1.6875q-0.421875 0.4375 -0.6875 0.875l6.546875 0z" fill-rule="nonzero"/><path fill="#000000" fill-opacity="0.0" d="m572.4724 278.78873l245.10242 64.75589" fill-rule="evenodd"/><path stroke="#000000" stroke-width="3.0" stroke-linejoin="round" stroke-linecap="butt" d="m572.4724 278.78873l245.10242 64.75589" fill-rule="evenodd"/><path fill="#000000" fill-opacity="0.0" d="m675.5486 272.7021l85.165344 0l0 54.456696l-85.165344 0z" fill-rule="evenodd"/><path fill="#000000" d="m691.89233 299.6221l-2.5625 0l0 -9.640625q-1.40625 1.3125 -3.3125 1.9375l0 -2.328125q1.015625 -0.328125 2.1875 -1.234375q1.171875 -0.921875 1.609375 -2.140625l2.078125 0l0 13.40625zm8.156921 -13.40625q1.9375 0 3.03125 1.375q1.296875 1.640625 1.296875 5.4375q0 3.796875 -1.3125 5.453125q-1.078125 1.375 -3.015625 1.375q-1.953125 0 -3.15625 -1.5q-1.1875 -1.5 -1.1875 -5.34375q0 -3.78125 1.3125 -5.4375q1.078125 -1.359375 3.03125 -1.359375zm0 2.125q-0.46875 0 -0.84375 0.296875q-0.359375 0.296875 -0.5625 1.0625q-0.25 0.984375 -0.25 3.328125q0 2.359375 0.234375 3.234375q0.234375 0.875 0.59375 1.171875q0.359375 0.296875 0.828125 0.296875q0.453125 0 0.8125 -0.296875q0.375 -0.296875 0.578125 -1.0625q0.265625 -0.984375 0.265625 -3.34375q0 -2.34375 -0.25 -3.21875q-0.234375 -0.875 -0.59375 -1.171875q-0.359375 -0.296875 -0.8125 -0.296875z" fill-rule="nonzero"/><path fill="#000000" fill-opacity="0.0" d="m526.2362 323.04068l22.70868 256.189" fill-rule="evenodd"/><path stroke="#000000" stroke-width="3.0" stroke-linejoin="round" stroke-linecap="butt" d="m526.2362 323.04068l22.70868 256.189" fill-rule="evenodd"/><path fill="#000000" fill-opacity="0.0" d="m480.0 462.95932l85.165344 0l0 54.456696l-85.165344 0z" fill-rule="evenodd"/><path fill="#000000" d="m498.46875 479.80118l-2.484375 0.265625q-0.09375 -0.765625 -0.484375 -1.125q-0.375 -0.375 -0.984375 -0.375q-0.8125 0 -1.375 0.734375q-0.546875 0.734375 -0.703125 3.03125q0.96875 -1.125 2.390625 -1.125q1.59375 0 2.734375 1.21875q1.140625 1.21875 1.140625 3.15625q0 2.046875 -1.203125 3.296875q-1.1875 1.234375 -3.078125 1.234375q-2.03125 0 -3.328125 -1.578125q-1.296875 -1.578125 -1.296875 -5.15625q0 -3.671875 1.34375 -5.28125q1.359375 -1.625 3.53125 -1.625q1.53125 0 2.515625 0.859375q1.0 0.84375 1.28125 2.46875zm-5.8125 5.578125q0 1.25 0.578125 1.9375q0.578125 0.671875 1.3125 0.671875q0.71875 0 1.1875 -0.546875q0.46875 -0.5625 0.46875 -1.828125q0 -1.3125 -0.515625 -1.90625q-0.5 -0.609375 -1.265625 -0.609375q-0.734375 0 -1.25 0.578125q-0.515625 0.578125 -0.515625 1.703125z" fill-rule="nonzero"/><path fill="#cfe2f3" d="m781.91077 561.66797l0 0c0 -24.439697 20.700684 -44.251953 46.236206 -44.251953l0 0c12.262634 0 24.02301 4.6622314 32.69397 12.961121c8.670959 8.298828 13.542236 19.554504 13.542236 31.290833l0 0c0 24.439697 -20.700623 44.251953 -46.236206 44.251953l0 0c-25.535522 0 -46.236206 -19.812256 -46.236206 -44.251953z" fill-rule="evenodd"/><path stroke="#000000" stroke-width="3.0" stroke-linejoin="round" stroke-linecap="butt" d="m781.91077 561.66797l0 0c0 -24.439697 20.700684 -44.251953 46.236206 -44.251953l0 0c12.262634 0 24.02301 4.6622314 32.69397 12.961121c8.670959 8.298828 13.542236 19.554504 13.542236 31.290833l0 0c0 24.439697 -20.700623 44.251953 -46.236206 44.251953l0 0c-25.535522 0 -46.236206 -19.812256 -46.236206 -44.251953z" fill-rule="evenodd"/><path fill="#000000" d="m823.74036 565.0567l1.640625 -0.21875q0.28125 1.40625 0.953125 2.015625q0.6875 0.609375 1.65625 0.609375q1.15625 0 1.953125 -0.796875q0.796875 -0.796875 0.796875 -1.984375q0 -1.125 -0.734375 -1.859375q-0.734375 -0.734375 -1.875 -0.734375q-0.46875 0 -1.15625 0.171875l0.1875 -1.4375q0.15625 0.015625 0.265625 0.015625q1.046875 0 1.875 -0.546875q0.84375 -0.546875 0.84375 -1.671875q0 -0.90625 -0.609375 -1.5q-0.609375 -0.59375 -1.578125 -0.59375q-0.953125 0 -1.59375 0.609375q-0.640625 0.59375 -0.8125 1.796875l-1.640625 -0.296875q0.296875 -1.640625 1.359375 -2.546875q1.0625 -0.90625 2.65625 -0.90625q1.09375 0 2.0 0.46875q0.921875 0.46875 1.40625 1.28125q0.5 0.8125 0.5 1.71875q0 0.859375 -0.46875 1.578125q-0.46875 0.703125 -1.375 1.125q1.1875 0.28125 1.84375 1.140625q0.65625 0.859375 0.65625 2.15625q0 1.734375 -1.28125 2.953125q-1.265625 1.21875 -3.21875 1.21875q-1.765625 0 -2.921875 -1.046875q-1.15625 -1.046875 -1.328125 -2.71875z" fill-rule="nonzero"/><path fill="#000000" fill-opacity="0.0" d="m558.9302 310.0796l236.5354 220.28345" fill-rule="evenodd"/><path stroke="#000000" stroke-width="3.0" stroke-linejoin="round" stroke-linecap="butt" d="m558.9302 310.0796l236.5354 220.28345" fill-rule="evenodd"/><path fill="#000000" fill-opacity="0.0" d="m664.31757 434.68372l85.165344 0l0 54.456696l-85.165344 0z" fill-rule="evenodd"/><path fill="#000000" d="m674.1457 458.16623l2.546875 -0.265625q0.109375 0.875 0.640625 1.375q0.546875 0.5 1.25 0.5q0.796875 0 1.34375 -0.640625q0.5625 -0.65625 0.5625 -1.96875q0 -1.234375 -0.546875 -1.84375q-0.546875 -0.609375 -1.4375 -0.609375q-1.09375 0 -1.96875 0.96875l-2.078125 -0.296875l1.3125 -6.953125l6.765625 0l0 2.390625l-4.828125 0l-0.40625 2.265625q0.859375 -0.421875 1.75 -0.421875q1.703125 0 2.890625 1.25q1.1875 1.234375 1.1875 3.203125q0 1.65625 -0.953125 2.9375q-1.3125 1.78125 -3.625 1.78125q-1.84375 0 -3.015625 -1.0q-1.15625 -1.0 -1.390625 -2.671875z" fill-rule="nonzero"/><path fill="#000000" fill-opacity="0.0" d="m863.81104 387.78873l-2.9606323 142.58267" fill-rule="evenodd"/><path stroke="#000000" stroke-width="3.0" stroke-linejoin="round" stroke-linecap="butt" d="m863.81104 387.78873l-2.9606323 142.58267" fill-rule="evenodd"/><path fill="#000000" fill-opacity="0.0" d="m876.6903 464.68372l54.299194 0l0 46.4252l-54.299194 0z" fill-rule="evenodd"/><path fill="#000000" d="m893.03406 491.60373l-2.5625 0l0 -9.640625q-1.40625 1.3125 -3.3125 1.9375l0 -2.328125q1.015625 -0.328125 2.1875 -1.234375q1.171875 -0.921875 1.609375 -2.140625l2.078125 0l0 13.40625zm3.8600464 -3.4375l2.546875 -0.265625q0.109375 0.875 0.640625 1.375q0.546875 0.5 1.25 0.5q0.796875 0 1.34375 -0.640625q0.5625 -0.65625 0.5625 -1.96875q0 -1.234375 -0.546875 -1.84375q-0.546875 -0.609375 -1.4375 -0.609375q-1.09375 0 -1.96875 0.96875l-2.078125 -0.296875l1.3125 -6.953125l6.765625 0l0 2.390625l-4.828125 0l-0.40625 2.265625q0.859375 -0.421875 1.75 -0.421875q1.703125 0 2.890625 1.25q1.1875 1.234375 1.1875 3.203125q0 1.65625 -0.953125 2.9375q-1.3125 1.78125 -3.625 1.78125q-1.84375 0 -3.015625 -1.0q-1.15625 -1.0 -1.390625 -2.671875z" fill-rule="nonzero"/><path fill="#000000" fill-opacity="0.0" d="m595.18634 623.4895l200.25195 -30.519714" fill-rule="evenodd"/><path stroke="#000000" stroke-width="3.0" stroke-linejoin="round" stroke-linecap="butt" d="m595.18634 623.4895l200.25195 -30.519714" fill-rule="evenodd"/><path fill="#000000" fill-opacity="0.0" d="m656.6903 572.542l49.29132 0l0 36.440918l-49.29132 0z" fill-rule="evenodd"/><path fill="#000000" d="m671.5028 599.462l0 -2.6875l-5.46875 0l0 -2.234375l5.796875 -8.484375l2.15625 0l0 8.46875l1.65625 0l0 2.25l-1.65625 0l0 2.6875l-2.484375 0zm0 -4.9375l0 -4.5625l-3.078125 4.5625l3.078125 0z" fill-rule="nonzero"/></g></svg>