<svg version="1.1" viewBox="0.0 150.0 960.0 115.0" fill="none" stroke="none" stroke-linecap="square" stroke-miterlimit="10" xmlns:xlink="http://www.w3.org/1999/xlink" xmlns="http://www.w3.org/2000/svg"><clipPath id="p.0"><path d="m0 0l960.0 0l0 720.0l-960.0 0l0 -720.0z" clip-rule="nonzero"/></clipPath><g clip-path="url(#p.0)"><path fill="#000000" fill-opacity="0.0" d="m0 0l960.0 0l0 720.0l-960.0 0z" fill-rule="evenodd"/><path fill="#d5a6bd" d="m78.78426 167.47769l127.96851 0l0 81.354324l-127.96851 0z" fill-rule="evenodd"/><path stroke="#000000" stroke-width="1.0" stroke-linejoin="round" stroke-linecap="butt" d="m78.78426 167.47769l127.96851 0l0 81.354324l-127.96851 0z" fill-rule="evenodd"/><path fill="#000000" d="m146.86191 204.99673l-1.625 0.125q-0.21875 -0.96875 -0.625 -1.40625q-0.65625 -0.703125 -1.640625 -0.703125q-0.78125 0 -1.375 0.4375q-0.765625 0.5625 -1.21875 1.65625q-0.453125 1.078125 -0.46875 3.078125q0.59375 -0.890625 1.453125 -1.328125q0.859375 -0.4375 1.796875 -0.4375q1.640625 0 2.78125 1.203125q1.15625 1.203125 1.15625 3.109375q0 1.265625 -0.546875 2.34375q-0.53125 1.078125 -1.484375 1.65625q-0.9375 0.578125 -2.140625 0.578125q-2.0625 0 -3.359375 -1.5q-1.28125 -1.515625 -1.28125 -4.984375q0 -3.875 1.421875 -5.625q1.25 -1.53125 3.375 -1.53125q1.5625 0 2.5625 0.890625q1.015625 0.875 1.21875 2.4375zm-6.6875 5.75q0 0.84375 0.359375 1.625q0.359375 0.765625 1.0 1.171875q0.640625 0.40625 1.359375 0.40625q1.03125 0 1.78125 -0.828125q0.75 -0.84375 0.75 -2.28125q0 -1.390625 -0.734375 -2.1875q-0.734375 -0.796875 -1.859375 -0.796875q-1.109375 0 -1.890625 0.796875q-0.765625 0.796875 -0.765625 2.09375z" fill-rule="nonzero"/><path fill="#d5a6bd" d="m206.7532 167.47769l127.968506 0l0 81.354324l-127.968506 0z" fill-rule="evenodd"/><path stroke="#000000" stroke-width="1.0" stroke-linejoin="round" stroke-linecap="butt" d="m206.7532 167.47769l127.968506 0l0 81.354324l-127.968506 0z" fill-rule="evenodd"/><path fill="#000000" d="m274.94022 213.49673l0 1.578125l-8.828125 0q-0.015625 -0.59375 0.1875 -1.140625q0.34375 -0.90625 1.078125 -1.78125q0.75 -0.875 2.15625 -2.015625q2.171875 -1.78125 2.9375 -2.828125q0.765625 -1.046875 0.765625 -1.96875q0 -0.984375 -0.703125 -1.640625q-0.6875 -0.671875 -1.8125 -0.671875q-1.1875 0 -1.90625 0.71875q-0.703125 0.703125 -0.703125 1.953125l-1.6875 -0.171875q0.171875 -1.890625 1.296875 -2.875q1.140625 -0.984375 3.03125 -0.984375q1.921875 0 3.046875 1.0625q1.125 1.0625 1.125 2.640625q0 0.796875 -0.328125 1.578125q-0.328125 0.78125 -1.09375 1.640625q-0.75 0.84375 -2.53125 2.34375q-1.46875 1.234375 -1.890625 1.6875q-0.421875 0.4375 -0.6875 0.875l6.546875 0z" fill-rule="nonzero"/><path fill="#b6d7a8" d="m334.72214 167.47769l127.968506 0l0 81.354324l-127.968506 0z" fill-rule="evenodd"/><path stroke="#000000" stroke-width="1.0" stroke-linejoin="round" stroke-linecap="butt" d="m334.72214 167.47769l127.968506 0l0 81.354324l-127.968506 0z" fill-rule="evenodd"/><path fill="#000000" d="m395.2838 215.07486l-1.640625 0l0 -10.453125q-0.59375 0.5625 -1.5625 1.140625q-0.953125 0.5625 -1.71875 0.84375l0 -1.59375q1.375 -0.640625 2.40625 -1.5625q1.03125 -0.921875 1.453125 -1.78125l1.0625 0l0 13.40625zm4.438202 -3.09375l1.578125 -0.140625q0.203125 1.109375 0.765625 1.609375q0.5625 0.5 1.453125 0.5q0.75 0 1.3125 -0.34375q0.578125 -0.34375 0.9375 -0.921875q0.375 -0.578125 0.609375 -1.5625q0.25 -0.984375 0.25 -2.0q0 -0.109375 0 -0.328125q-0.5 0.78125 -1.359375 1.265625q-0.84375 0.484375 -1.828125 0.484375q-1.671875 0 -2.8125 -1.203125q-1.140625 -1.203125 -1.140625 -3.171875q0 -2.03125 1.1875 -3.265625q1.203125 -1.234375 3.0 -1.234375q1.3125 0 2.390625 0.703125q1.078125 0.703125 1.640625 2.0q0.5625 1.296875 0.5625 3.75q0 2.5625 -0.5625 4.078125q-0.5625 1.515625 -1.65625 2.3125q-1.09375 0.796875 -2.578125 0.796875q-1.5625 0 -2.5625 -0.875q-0.984375 -0.875 -1.1875 -2.453125zm6.71875 -5.890625q0 -1.40625 -0.75 -2.234375q-0.75 -0.828125 -1.8125 -0.828125q-1.09375 0 -1.90625 0.890625q-0.8125 0.890625 -0.8125 2.3125q0 1.28125 0.765625 2.078125q0.78125 0.796875 1.90625 0.796875q1.140625 0 1.875 -0.796875q0.734375 -0.796875 0.734375 -2.21875z" fill-rule="nonzero"/><path fill="#d5a6bd" d="m462.69107 167.47769l127.96854 0l0 81.354324l-127.96854 0z" fill-rule="evenodd"/><path stroke="#000000" stroke-width="1.0" stroke-linejoin="round" stroke-linecap="butt" d="m462.69107 167.47769l127.96854 0l0 81.354324l-127.96854 0z" fill-rule="evenodd"/><path fill="#000000" d="m522.5031 211.98111l1.578125 -0.140625q0.203125 1.109375 0.765625 1.609375q0.5625 0.5 1.453125 0.5q0.75 0 1.3125 -0.34375q0.578125 -0.34375 0.9375 -0.921875q0.375 -0.578125 0.609375 -1.5625q0.25 -0.984375 0.25 -2.0q0 -0.109375 0 -0.328125q-0.5 0.78125 -1.359375 1.265625q-0.84375 0.484375 -1.828125 0.484375q-1.671875 0 -2.8125 -1.203125q-1.140625 -1.203125 -1.140625 -3.171875q0 -2.03125 1.1875 -3.265625q1.203125 -1.234375 3.0 -1.234375q1.3125 0 2.390625 0.703125q1.078125 0.703125 1.640625 2.0q0.5625 1.296875 0.5625 3.75q0 2.5625 -0.5625 4.078125q-0.5625 1.515625 -1.65625 2.3125q-1.09375 0.796875 -2.578125 0.796875q-1.5625 0 -2.5625 -0.875q-0.984375 -0.875 -1.1875 -2.453125zm6.71875 -5.890625q0 -1.40625 -0.75 -2.234375q-0.75 -0.828125 -1.8125 -0.828125q-1.09375 0 -1.90625 0.890625q-0.8125 0.890625 -0.8125 2.3125q0 1.28125 0.765625 2.078125q0.78125 0.796875 1.90625 0.796875q1.140625 0 1.875 -0.796875q0.734375 -0.796875 0.734375 -2.21875z" fill-rule="nonzero"/><path fill="#d5a6bd" d="m590.66003 167.47769l127.968506 0l0 81.354324l-127.968506 0z" fill-rule="evenodd"/><path stroke="#000000" stroke-width="1.0" stroke-linejoin="round" stroke-linecap="butt" d="m590.66003 167.47769l127.968506 0l0 81.354324l-127.968506 0z" fill-rule="evenodd"/><path fill="#000000" d="m650.2377 211.57486l1.71875 -0.140625q0.1875 1.25 0.875 1.890625q0.703125 0.625 1.6875 0.625q1.1875 0 2.0 -0.890625q0.828125 -0.890625 0.828125 -2.359375q0 -1.40625 -0.796875 -2.21875q-0.78125 -0.8125 -2.0625 -0.8125q-0.78125 0 -1.421875 0.359375q-0.640625 0.359375 -1.0 0.9375l-1.546875 -0.203125l1.296875 -6.859375l6.640625 0l0 1.5625l-5.328125 0l-0.71875 3.59375q1.203125 -0.84375 2.515625 -0.84375q1.75 0 2.953125 1.21875q1.203125 1.203125 1.203125 3.109375q0 1.8125 -1.046875 3.140625q-1.296875 1.625 -3.515625 1.625q-1.8125 0 -2.96875 -1.015625q-1.15625 -1.03125 -1.3125 -2.71875z" fill-rule="nonzero"/><path fill="#d5a6bd" d="m718.62897 167.47769l127.968506 0l0 81.354324l-127.968506 0z" fill-rule="evenodd"/><path stroke="#000000" stroke-width="1.0" stroke-linejoin="round" stroke-linecap="butt" d="m718.62897 167.47769l127.968506 0l0 81.354324l-127.968506 0z" fill-rule="evenodd"/><path fill="#000000" d="m780.7222 207.84048q-1.015625 -0.375 -1.515625 -1.0625q-0.484375 -0.703125 -0.484375 -1.671875q0 -1.453125 1.046875 -2.4375q1.046875 -1.0 2.78125 -1.0q1.75 0 2.8125 1.015625q1.078125 1.015625 1.078125 2.46875q0 0.9375 -0.5 1.625q-0.484375 0.6875 -1.46875 1.0625q1.21875 0.390625 1.859375 1.28125q0.65625 0.890625 0.65625 2.140625q0 1.703125 -1.21875 2.875q-1.21875 1.171875 -3.1875 1.171875q-1.984375 0 -3.203125 -1.171875q-1.203125 -1.171875 -1.203125 -2.921875q0 -1.3125 0.65625 -2.1875q0.671875 -0.875 1.890625 -1.1875zm-0.328125 -2.78125q0 0.9375 0.609375 1.546875q0.609375 0.59375 1.59375 0.59375q0.9375 0 1.546875 -0.59375q0.609375 -0.59375 0.609375 -1.453125q0 -0.90625 -0.625 -1.515625q-0.625 -0.625 -1.5625 -0.625q-0.9375 0 -1.5625 0.609375q-0.609375 0.59375 -0.609375 1.4375zm-0.53125 6.15625q0 0.703125 0.328125 1.359375q0.34375 0.65625 1.0 1.015625q0.65625 0.359375 1.40625 0.359375q1.171875 0 1.9375 -0.75q0.765625 -0.75 0.765625 -1.921875q0 -1.1875 -0.796875 -1.953125q-0.78125 -0.78125 -1.953125 -0.78125q-1.15625 0 -1.921875 0.765625q-0.765625 0.765625 -0.765625 1.90625z" fill-rule="nonzero"/></g></svg>